<svg xmlns="http://www.w3.org/2000/svg" viewBox="1043 2590.5 36.833 32.5"><defs><style>.cls-1{fill:#fff}</style></defs><g id="category3" transform="translate(1043 2564.5)"><path id="Path_560" data-name="Path 560" class="cls-1" d="M69.25 336h-8.417a.833.833 0 1 0 0 1.667h8.417a.833.833 0 1 0 0-1.667z" transform="translate(-55 -284.167)"/><path id="Path_561" data-name="Path 561" class="cls-1" d="M220.25 336h-8.417a.833.833 0 1 0 0 1.667h8.417a.833.833 0 0 0 0-1.667z" transform="translate(-193.417 -284.167)"/><path id="Path_562" data-name="Path 562" class="cls-1" d="M81.833 86h-21a.833.833 0 1 0 0 1.667h21a.833.833 0 0 0 0-1.667z" transform="translate(-55 -55)"/><path id="Path_563" data-name="Path 563" class="cls-1" d="M220.25 136h-8.417a.833.833 0 1 0 0 1.667h8.417a.833.833 0 0 0 0-1.667z" transform="translate(-193.417 -100.833)"/><path id="Path_564" data-name="Path 564" class="cls-1" d="M220.25 186h-8.417a.833.833 0 1 0 0 1.667h8.417a.833.833 0 0 0 0-1.667z" transform="translate(-193.417 -146.667)"/><path id="Path_565" data-name="Path 565" class="cls-1" d="M220.25 236h-8.417a.833.833 0 1 0 0 1.667h8.417a.833.833 0 0 0 0-1.667z" transform="translate(-193.417 -192.5)"/><path id="Path_566" data-name="Path 566" class="cls-1" d="M220.25 286h-8.417a.833.833 0 1 0 0 1.667h8.417a.833.833 0 0 0 0-1.667z" transform="translate(-193.417 -238.333)"/><path id="Path_567" data-name="Path 567" class="cls-1" d="M69.25 286h-8.417a.833.833 0 1 0 0 1.667h8.417a.833.833 0 1 0 0-1.667z" transform="translate(-55 -238.333)"/><path id="Path_568" data-name="Path 568" class="cls-1" d="M69.25 136h-8.417a.833.833 0 0 0-.833.833v8.417a.833.833 0 0 0 .833.833h8.417a.833.833 0 0 0 .833-.833v-8.417a.833.833 0 0 0-.833-.833zm-.833 8.417h-6.75v-6.75h6.75z" transform="translate(-55 -100.833)"/><path id="Path_569" data-name="Path 569" class="cls-1" d="M35.167 30.167h-2.5v-2.5A1.669 1.669 0 0 0 31 26H1.667A1.669 1.669 0 0 0 0 27.667v26.666A4.171 4.171 0 0 0 4.167 58.5h28.5a4.171 4.171 0 0 0 4.167-4.167v-22.5a1.669 1.669 0 0 0-1.667-1.666zm0 24.167a2.5 2.5 0 0 1-2.5 2.5h-28.5a2.5 2.5 0 0 1-2.5-2.5V27.667H31v25.416a2.086 2.086 0 0 0 2.083 2.083.833.833 0 0 0 0-1.667.417.417 0 0 1-.417-.417V31.833h2.5z"/></g></svg>