<svg xmlns="http://www.w3.org/2000/svg" viewBox="1038 2781.848 45.214 35.304"><defs><style>.cls-1{fill:#fff}</style></defs><g id="category7" transform="translate(1038 2725.848)"><path id="Path_581" data-name="Path 581" class="cls-1" d="M32.664 217.327h2.124a.664.664 0 0 0 0-1.327h-2.124a.664.664 0 0 0 0 1.327z" transform="translate(-29.169 -145.843)"/><path id="Path_582" data-name="Path 582" class="cls-1" d="M32.664 153.327h14.864a.664.664 0 0 0 0-1.327H32.664a.664.664 0 0 0 0 1.327z" transform="translate(-29.169 -87.506)"/><path id="Path_583" data-name="Path 583" class="cls-1" d="M232.664 153.327h2.831a.664.664 0 0 0 0-1.327h-2.831a.664.664 0 0 0 0 1.327z" transform="translate(-211.472 -87.506)"/><path id="Path_584" data-name="Path 584" class="cls-1" d="M368.664 153.327h8.494a.664.664 0 0 0 0-1.327h-8.494a.664.664 0 0 0 0 1.327z" transform="translate(-335.439 -87.506)"/><path id="Path_585" data-name="Path 585" class="cls-1" d="M368.664 216a.665.665 0 1 0 .469.195.666.666 0 0 0-.469-.195z" transform="translate(-335.439 -145.843)"/><path id="Path_586" data-name="Path 586" class="cls-1" d="M369.133 280.195a.662.662 0 1 0 .195.469.666.666 0 0 0-.195-.469z" transform="translate(-335.439 -204.18)"/><path id="Path_587" data-name="Path 587" class="cls-1" d="M368.664 344a.665.665 0 1 0 .469.195.666.666 0 0 0-.469-.195z" transform="translate(-335.439 -262.517)"/><path id="Path_588" data-name="Path 588" class="cls-1" d="M400.664 344a.665.665 0 1 0 .469.195.665.665 0 0 0-.469-.195z" transform="translate(-364.608 -262.517)"/><path id="Path_589" data-name="Path 589" class="cls-1" d="M368.664 408a.665.665 0 1 0 .469.195.666.666 0 0 0-.469-.195z" transform="translate(-335.439 -320.855)"/><path id="Path_590" data-name="Path 590" class="cls-1" d="M400.664 408a.665.665 0 1 0 .469.195.666.666 0 0 0-.469-.195z" transform="translate(-364.608 -320.855)"/><path id="Path_591" data-name="Path 591" class="cls-1" d="M433.133 344.195a.662.662 0 1 0 .195.469.666.666 0 0 0-.195-.469z" transform="translate(-393.776 -262.517)"/><path id="Path_592" data-name="Path 592" class="cls-1" d="M401.133 216.195a.662.662 0 1 0 .195.469.664.664 0 0 0-.195-.469z" transform="translate(-364.608 -145.843)"/><path id="Path_593" data-name="Path 593" class="cls-1" d="M34.787 408h-2.123a.664.664 0 1 0 0 1.327h2.124a.664.664 0 1 0 0-1.327z" transform="translate(-29.169 -320.855)"/><path id="Path_594" data-name="Path 594" class="cls-1" d="M136.664 89.327h19.82a.664.664 0 0 0 0-1.327h-19.82a.664.664 0 0 0 0 1.327z" transform="translate(-123.967 -29.169)"/><path id="Path_595" data-name="Path 595" class="cls-1" d="M32.664 281.327h2.124a.664.664 0 0 0 0-1.327h-2.124a.664.664 0 0 0 0 1.327z" transform="translate(-29.169 -204.18)"/><path id="Path_596" data-name="Path 596" class="cls-1" d="M34.787 344h-2.123a.664.664 0 0 0 0 1.327h2.124a.664.664 0 0 0 0-1.327z" transform="translate(-29.169 -262.517)"/><path id="Path_597" data-name="Path 597" class="cls-1" d="M194.079 344h-1.416a.664.664 0 1 0 0 1.327h1.416a.664.664 0 0 0 0-1.327z" transform="translate(-175.012 -262.517)"/><path id="Path_598" data-name="Path 598" class="cls-1" d="M192.664 409.327h1.416a.664.664 0 1 0 0-1.327h-1.416a.664.664 0 1 0 0 1.327z" transform="translate(-175.012 -320.855)"/><path id="Path_599" data-name="Path 599" class="cls-1" d="M194.079 280h-1.416a.664.664 0 1 0 0 1.327h1.416a.664.664 0 0 0 0-1.327z" transform="translate(-175.012 -204.18)"/><path id="Path_600" data-name="Path 600" class="cls-1" d="M192.664 217.327h1.416a.664.664 0 0 0 0-1.327h-1.416a.664.664 0 1 0 0 1.327z" transform="translate(-175.012 -145.843)"/><path id="Path_601" data-name="Path 601" class="cls-1" d="M240.664 217.327h2.836a.664.664 0 0 0 0-1.327h-2.831a.664.664 0 1 0 0 1.327z" transform="translate(-218.765 -145.843)"/><path id="Path_602" data-name="Path 602" class="cls-1" d="M245.619 280h-4.955a.664.664 0 1 0 0 1.327h4.955a.664.664 0 0 0 0-1.327z" transform="translate(-218.765 -204.18)"/><path id="Path_603" data-name="Path 603" class="cls-1" d="M242.079 344h-1.416a.664.664 0 1 0 0 1.327h1.416a.664.664 0 0 0 0-1.327z" transform="translate(-218.765 -262.517)"/><path id="Path_604" data-name="Path 604" class="cls-1" d="M240.664 409.327h2.836a.664.664 0 1 0 0-1.327h-2.831a.664.664 0 1 0 0 1.327z" transform="translate(-218.765 -320.855)"/><path id="Path_605" data-name="Path 605" class="cls-1" d="M41.719 56H3.5A3.5 3.5 0 0 0 0 59.5v28.309A3.5 3.5 0 0 0 3.5 91.3h38.219a3.5 3.5 0 0 0 3.5-3.495V59.5a3.5 3.5 0 0 0-3.5-3.5zM15.484 84.314v-4.336H29.73v4.336zm14.246 1.327v4.336H15.484v-4.336zM43.887 62.99v4.336h-12.83V62.99zM29.73 68.653v4.336H15.484v-4.336zm-15.573 4.335H1.327v-4.335h12.83zm0 1.327v4.336H1.327v-4.335zm1.327 0H29.73v4.336H15.484zm15.573 0h12.83v4.336h-12.83zm0-1.327v-4.335h12.83v4.336zm-1.327-5.662H1.327V62.99h28.4zM1.327 79.978h12.83v4.336H1.327zm29.73 0h12.83v4.336h-12.83zM3.5 57.327h38.219a2.17 2.17 0 0 1 2.168 2.173v2.168H1.327V59.5A2.17 2.17 0 0 1 3.5 57.327zM1.327 87.809v-2.168h12.83v4.336H3.5a2.17 2.17 0 0 1-2.173-2.168zm40.392 2.168H31.057v-4.336h12.83v2.168a2.17 2.17 0 0 1-2.168 2.168z"/></g></svg>