<svg xmlns="http://www.w3.org/2000/svg" viewBox="837 2586.2 43.6 43.6"><defs><style>.cls-1{fill:#fff}</style></defs><g id="category2" transform="translate(836.999 2586.2)"><path id="Path_554" data-name="Path 554" class="cls-1" d="M396.494 411.267a.852.852 0 1 0 .25.6.857.857 0 0 0-.25-.6z" transform="translate(-361.399 -376.017)"/><path id="Path_555" data-name="Path 555" class="cls-1" d="M66.466 443.287a.852.852 0 1 0 .25.6.857.857 0 0 0-.25-.6z" transform="translate(-59.475 -405.31)"/><path id="Path_556" data-name="Path 556" class="cls-1" d="M311.38 97.11a16.108 16.108 0 0 0-9.617-7.5.852.852 0 1 0-.455 1.641 14.394 14.394 0 0 1 8.592 6.7.852.852 0 0 0 1.479-.844z" transform="translate(-275.078 -81.955)"/><path id="Path_557" data-name="Path 557" class="cls-1" d="M254.1 83.155h-.091a.852.852 0 0 0 0 1.7h.086a.852.852 0 0 0 0-1.7z" transform="translate(-231.597 -76.074)"/><path id="Path_558" data-name="Path 558" class="cls-1" d="M43.6 23.673a.852.852 0 0 0-.852-.852h-1.04a19.935 19.935 0 0 0-16.3-18.749v-.46a3.612 3.612 0 1 0-7.224 0v.461a19.935 19.935 0 0 0-16.3 18.749H.853a.852.852 0 0 0-.853.851 5.459 5.459 0 0 0 4.011 5.256l-3.53 1.71a.852.852 0 0 0 .742 1.533l4.292-2.079 4.752 9.81-4.292 2.079a.852.852 0 1 0 .742 1.533l5.058-2.45a.852.852 0 0 0 .4-1.138l-.4-.83 12.207 2.483a8.658 8.658 0 0 0 1.725.173 8.818 8.818 0 0 0 5.779-2.153l1.6-1.392a.852.852 0 1 0-1.12-1.283l-1.6 1.392a7.1 7.1 0 0 1-6.045 1.6l-13.486-2.748-2.55-5.269 5.9-2.376a5.422 5.422 0 0 1 3.967-.037l6.086 2.319a1.237 1.237 0 0 1-.789 2.343l-4.922-1.445a.852.852 0 1 0-.48 1.634l4.922 1.445a2.965 2.965 0 0 0 .836.121 2.923 2.923 0 0 0 2.177-.972l.3.019q.308.019.616.019a9.993 9.993 0 0 0 5.985-1.992l4.48-3.355a.978.978 0 0 1 1.217.042.972.972 0 0 1 0 1.47L36.106 33.3a.852.852 0 1 0 1.12 1.283l2.483-2.166a2.674 2.674 0 0 0 .36-3.648 5.458 5.458 0 0 0 3.531-5.096zM19.892 3.612a1.909 1.909 0 0 1 3.818 0v.225q-.946-.089-1.909-.09t-1.909.09v-.225zM21.8 5.45A18.245 18.245 0 0 1 40 22.822H3.6A18.245 18.245 0 0 1 21.8 5.45zM7.541 30.368l-.6-1.245h3.7zm24.325 1.251a8.287 8.287 0 0 1-5.141 1.649 2.935 2.935 0 0 0-1.876-3.05l-2.875-1.1H35.2zm6.285-4.2h-32.7a3.753 3.753 0 0 1-3.649-2.9h40a3.753 3.753 0 0 1-3.651 2.901z"/><path id="Path_559" data-name="Path 559" class="cls-1" d="M207.657 139.52a3 3 0 0 0-1.6.465 3 3 0 0 0-1.6-.465 3.1 3.1 0 0 0-3.051 3.135c0 2.509 3.749 5.079 4.177 5.364a.851.851 0 0 0 .944 0c.427-.285 4.177-2.855 4.177-5.364a3.1 3.1 0 0 0-3.047-3.135zm-1.6 6.747c-1.188-.887-2.947-2.51-2.947-3.612a1.393 1.393 0 0 1 1.348-1.432 1.3 1.3 0 0 1 .968.436.852.852 0 0 0 1.259 0 1.3 1.3 0 0 1 .968-.436 1.393 1.393 0 0 1 1.347 1.432c0 1.025-1.589 2.61-2.94 3.612z" transform="translate(-184.258 -127.639)"/></g></svg>