<svg xmlns="http://www.w3.org/2000/svg" viewBox="1243 2588.3 39.4 39.4"><defs><style>.cls-1{fill:#fff}</style></defs><g id="category4" transform="translate(1243 2588.3)"><path id="Path_570" data-name="Path 570" class="cls-1" d="M33.63 5.77A19.7 19.7 0 1 0 5.77 33.63 19.7 19.7 0 1 0 33.63 5.77zM19.7 37.83A18.13 18.13 0 1 1 37.83 19.7 18.151 18.151 0 0 1 19.7 37.83z"/><path id="Path_571" data-name="Path 571" class="cls-1" d="M423.086 297.837a.784.784 0 0 0-.954.567 15.264 15.264 0 0 1-2.166 4.812.785.785 0 1 0 1.3.881 16.827 16.827 0 0 0 2.387-5.305.785.785 0 0 0-.567-.955z" transform="translate(-387.524 -274.895)"/><path id="Path_572" data-name="Path 572" class="cls-1" d="M456.507 245.8a.785.785 0 0 0-.785.785c0 .224 0 .451-.014.672a.785.785 0 0 0 .75.818h.034a.785.785 0 0 0 .784-.751c.011-.244.016-.493.016-.74a.785.785 0 0 0-.785-.784z" transform="translate(-420.639 -226.886)"/><path id="Path_573" data-name="Path 573" class="cls-1" d="M223.05 172.877a2.75 2.75 0 0 0-2.747 2.747v13.657a2.747 2.747 0 1 0 5.494 0v-13.657a2.75 2.75 0 0 0-2.747-2.747zm1.177 16.4a1.177 1.177 0 1 1-2.355 0v-13.653a1.177 1.177 0 1 1 2.355 0z" transform="translate(-203.35 -159.574)"/><path id="Path_574" data-name="Path 574" class="cls-1" d="M224.992 91.067a2.748 2.748 0 1 0 .805 1.943 2.769 2.769 0 0 0-.805-1.943zm-1.109 2.775a1.178 1.178 0 1 1 .344-.832 1.189 1.189 0 0 1-.344.832z" transform="translate(-203.35 -83.317)"/></g></svg>