<svg xmlns="http://www.w3.org/2000/svg" viewBox="1083.08 653 59.738 64.001"><g data-name="Group 1826"><path data-name="Path 528" d="M1127.88 692.468a1.067 1.067 0 0 0-1.067-1.067h-6.4a1.067 1.067 0 0 0 0 2.133h6.4a1.067 1.067 0 0 0 1.067-1.066z"/><path data-name="Path 529" d="M1123.614 664.733V659.4a1.067 1.067 0 1 0-2.133 0v5.333a5.339 5.339 0 0 0 5.333 5.333h9.6v20.267a1.067 1.067 0 0 0 2.133 0V669a1.067 1.067 0 0 0-1.067-1.067h-10.666a3.2 3.2 0 0 1-3.2-3.2z"/><path data-name="Path 530" d="M1126.814 678.6h-8.533a1.067 1.067 0 1 0 0 2.133h8.533a1.067 1.067 0 1 0 0-2.133z"/><path data-name="Path 531" d="M1115.08 679.667a1.067 1.067 0 0 0-1.067-1.067h-6.4a1.067 1.067 0 1 0 0 2.133h6.4a1.067 1.067 0 0 0 1.067-1.066z"/><path data-name="Path 532" d="M1107.614 685a1.067 1.067 0 0 0 0 2.133h2.133a1.067 1.067 0 0 0 0-2.133z"/><path data-name="Path 533" d="M1107.614 674.333h10.667a1.067 1.067 0 0 0 0-2.133h-10.667a1.067 1.067 0 0 0 0 2.133z"/><path data-name="Path 534" d="M1114.014 687.134h10.667a1.067 1.067 0 0 0 0-2.133h-10.667a1.067 1.067 0 1 0 0 2.133z"/><path data-name="Path 535" d="M1120.414 697.801a1.067 1.067 0 0 0 0 2.133h2.133a1.067 1.067 0 1 0 0-2.133z"/><path data-name="Path 536" d="M1116.147 691.401h-8.533a1.067 1.067 0 1 0 0 2.133h8.533a1.067 1.067 0 1 0 0-2.133z"/><path data-name="Path 537" d="M1116.147 697.801h-8.533a1.067 1.067 0 1 0 0 2.133h8.533a1.067 1.067 0 1 0 0-2.133z"/><path data-name="Path 538" d="M1141.544 696.938l-2.133-2.133a4.008 4.008 0 0 0-5.775 0l-13.973 13.975a1.068 1.068 0 0 0-.313.754v6.4a1.067 1.067 0 0 0 1.067 1.067h6.4a1.068 1.068 0 0 0 .754-.312l13.976-13.976a3.908 3.908 0 0 0-.003-5.775zm-9.288 2.262l1.692 1.692-9.267 9.267-1.692-1.692zm-10.776 15.667v-4.894l4.892 4.892zm6.4-1.508l-1.692-1.692 9.267-9.267 1.692 1.692zm12.155-12.155l-1.379 1.379-4.892-4.892 1.379-1.379a1.819 1.819 0 0 1 2.758 0l2.133 2.133a1.793 1.793 0 0 1 .001 2.759z"/><path data-name="Path 539" d="M1116.147 714.867h-27.734a3.2 3.2 0 0 1-3.2-3.2v-53.334a3.2 3.2 0 0 1 3.2-3.2h33.693l10.354 10.355a1.067 1.067 0 1 0 1.508-1.508l-10.667-10.667a1.064 1.064 0 0 0-.754-.313h-34.134a5.339 5.339 0 0 0-5.333 5.333v53.335a5.34 5.34 0 0 0 5.333 5.332h27.734a1.067 1.067 0 0 0 0-2.134z"/><path data-name="Path 540" d="M1116.147 704.201h-8.533a1.067 1.067 0 1 0 0 2.133h8.533a1.067 1.067 0 1 0 0-2.133z"/><path data-name="Path 541" d="M1102.28 673.267a1.067 1.067 0 0 0-1.067-1.067h-6.4a1.067 1.067 0 0 0-1.067 1.067v6.4a1.067 1.067 0 0 0 1.067 1.067h6.4a1.067 1.067 0 0 0 1.067-1.067zm-2.133 5.333h-4.267v-4.267h4.267z"/><path data-name="Path 542" d="M1094.814 706.334h6.4a1.067 1.067 0 0 0 1.067-1.067v-6.4a1.067 1.067 0 0 0-1.067-1.067h-6.4a1.067 1.067 0 0 0-1.067 1.067v6.4a1.067 1.067 0 0 0 1.067 1.067zm1.067-6.4h4.267v4.266h-4.267z"/><path data-name="Path 543" d="M1096.193 693.221a1.068 1.068 0 0 0 .754.313.866.866 0 0 0 .106-.005 1.064 1.064 0 0 0 .782-.469l4.267-6.4a1.067 1.067 0 1 0-1.775-1.184l-3.545 5.317-1.214-1.213a1.067 1.067 0 0 0-1.508 1.508z"/></g></svg>