<svg xmlns="http://www.w3.org/2000/svg" viewBox="1382.5 652.121 67.002 62.154"><defs><style>.cls-1{stroke:#fff}</style></defs><g id="information" transform="translate(1383 633.819)"><path id="Path_544" data-name="Path 544" class="cls-1" d="M223.332 92.11a7.256 7.256 0 0 0-5.469-2.262c-3.924 0-7.432 2.679-7.82 5.976a5.222 5.222 0 0 0 1.318 4.119 7.2 7.2 0 0 0 5.42 2.22c4.026 0 7.482-2.625 7.868-5.973a5.172 5.172 0 0 0-1.317-4.08zm-1.832 3.714c-.2 1.719-2.36 3.171-4.721 3.171a4.11 4.11 0 0 1-3.055-1.16 2.037 2.037 0 0 1-.536-1.645c.2-1.691 2.382-3.175 4.672-3.175a4.167 4.167 0 0 1 3.1 1.2 2.034 2.034 0 0 1 .54 1.609z" transform="translate(-182.936 -61.887)"/><path id="Path_545" data-name="Path 545" class="cls-1" d="M204.631 220c-.4-.266-1.323-.887-.575-5.2a1393.05 1393.05 0 0 0 1.511-7.065v-.017a8.534 8.534 0 0 0-1.255-6.991 7.492 7.492 0 0 0-5.512-2.827c-3.427-.274-7.012 1.771-8.111 3.784a1.961 1.961 0 0 0-.073 1.971 2.522 2.522 0 0 0 .836.863c.389.276 1.3.923.435 5.23-.081.394-1.289 6.536-1.449 7.408v.018a8.42 8.42 0 0 0 1.438 6.956 7.86 7.86 0 0 0 6 2.686c3.3 0 6.591-2.047 7.594-4.006a1.96 1.96 0 0 0 .022-1.972 2.519 2.519 0 0 0-.861-.838zm-2.169-12.91c-.535 2.545-1.027 4.829-1.292 6.056-.18.835-.216 1-.229 1.074v.017c-.8 4.623.01 6.647 1.162 7.779a6.229 6.229 0 0 1-1.28.86 6.506 6.506 0 0 1-3.192.77 4.325 4.325 0 0 1-3.277-1.489 5.494 5.494 0 0 1-.792-4.434c.172-.938 1.382-7.082 1.433-7.326v-.016c.925-4.6.164-6.645-.958-7.806a6.229 6.229 0 0 1 1.3-.826 6.508 6.508 0 0 1 3.211-.686 4.324 4.324 0 0 1 3.236 1.574 5.493 5.493 0 0 1 .678 4.451z" transform="translate(-165.732 -155.99)"/><path id="Path_546" data-name="Path 546" class="cls-1" d="M59.249 67.293a28.307 28.307 0 0 0-2.966-39.7A34.412 34.412 0 0 0 33 18.8a34.412 34.412 0 0 0-23.281 8.793 28.416 28.416 0 0 0 0 42.8A34.411 34.411 0 0 0 33 79.182a35.485 35.485 0 0 0 15.71-3.634l11.5 4.307a1.584 1.584 0 0 0 2.079-1.919zm-10.08 5.044a1.585 1.585 0 0 0-1.289.079A32.237 32.237 0 0 1 33 76.014c-16.45 0-29.833-12.122-29.833-27.022S16.551 21.97 33 21.97s29.833 12.122 29.833 27.022A25.2 25.2 0 0 1 56.3 65.859a1.584 1.584 0 0 0-.336 1.484l2.413 8.443z"/></g></svg>