<svg xmlns="http://www.w3.org/2000/svg" viewBox="1984.013 101.92 802.158 518.08"><defs><style>.cls-1{fill:#fff}.cls-2{fill:#cecece}.cls-3{fill:#e0e0e0}.cls-4{fill:#ededed}.cls-5{fill:#939393}.cls-6{fill:#9e9e9e}.cls-37,.cls-7{fill:#020202}.cls-7{opacity:.08}.cls-8{fill:#777}.cls-9{fill:#bfbfbf}.cls-10{fill:#e6e7e9}.cls-11{fill:#b8b9bb}.cls-12{fill:#fefcfe}.cls-13{fill:#42210b}.cls-14{fill:#6b3e1f}.cls-15{fill:#1b1f21}.cls-16{fill:#475059}.cls-17{fill:#f9f9f7}.cls-18{fill:#f4ba2e}.cls-19{fill:#ffdb92}.cls-20{fill:#ffcc5a}.cls-21{fill:#2d3538}.cls-22{fill:#cecfd1}.cls-23,.cls-25{fill:#231f20}.cls-23{opacity:.15}.cls-24{fill:#f6f4f4}.cls-25{opacity:.2}.cls-26{fill:#dedede}.cls-27{fill:#3a4349}.cls-28{fill:#252b2d}.cls-29{fill:#414a51}.cls-30{fill:#323b3f}.cls-31{fill:#8e6040}.cls-32{fill:#512d10}.cls-33{fill:#eaeaea}.cls-34{fill:#b2b2b2}.cls-35{fill:#848484}.cls-36{fill:#3f4d50}.cls-37{opacity:.26}.cls-38{fill:#edbe85}.cls-39{fill:#fff2e6}.cls-40{fill:#e2e2e2}.cls-41{fill:#31373a}</style></defs><g id="main-page-bg" transform="translate(1984.013 101.979)"><path id="Rectangle_2" data-name="Rectangle 2" class="cls-1" transform="rotate(111.691 -45.924 268.948)" d="M0 0h2.058v24.802H0z"/><path id="Rectangle_3" data-name="Rectangle 3" class="cls-2" transform="rotate(-68.28 379.269 81.6)" d="M0 0h2.058v1.323H0z"/><path id="Path_1" data-name="Path 1" class="cls-1" d="M1068.151 2711.718l2.161-5.41a.282.282 0 0 0-.162-.367l-6.44-2.558a.282.282 0 0 0-.368.162l-2.161 5.41a.282.282 0 0 0 .162.367l6.439 2.559a.282.282 0 0 0 .369-.163z" transform="translate(-905.152 -2305.97)"/><g id="Group_1" data-name="Group 1" transform="translate(140.119 389.323)"><path id="Path_2" data-name="Path 2" class="cls-1" d="M970.914 2665.235l2.94-7.4a1.562 1.562 0 0 0-.867-2.014l-12.952-5.146a1.562 1.562 0 0 0-2.014.867l-2.94 7.4a1.562 1.562 0 0 0 .867 2.014l12.952 5.144a1.551 1.551 0 0 0 2.014-.865z" transform="translate(-954.694 -2650.265)"/><path id="Path_3" data-name="Path 3" class="cls-3" d="M967.867 2664.708a1.845 1.845 0 0 1-.676-.132l-12.952-5.146a1.85 1.85 0 0 1-1.014-.985 1.81 1.81 0 0 1-.015-1.411l2.94-7.4a1.849 1.849 0 0 1 .985-1.014 1.81 1.81 0 0 1 1.411-.015l12.952 5.146a1.827 1.827 0 0 1 1.029 2.382l-2.94 7.4a1.881 1.881 0 0 1-1.72 1.175zm-10.012-15.628a1.237 1.237 0 0 0-1.161.794l-2.94 7.395a1.266 1.266 0 0 0 .015.956 1.223 1.223 0 0 0 .691.662l12.952 5.146a1.263 1.263 0 0 0 1.632-.706l2.94-7.4a1.264 1.264 0 0 0-.706-1.632l-12.952-5.146a1.842 1.842 0 0 0-.47-.068z" transform="translate(-953.074 -2648.474)"/></g><path id="Path_4" data-name="Path 4" class="cls-4" d="M190.224 2202.113l-19.406 48.8a6.976 6.976 0 0 0 3.9 9.056l96.018 38.2a6.976 6.976 0 0 0 9.056-3.9l19.406-48.8a6.976 6.976 0 0 0-3.9-9.056l-96.018-38.2a6.976 6.976 0 0 0-9.056 3.9z" transform="translate(-145.28 -1874.666)"/><path id="Rectangle_4" data-name="Rectangle 4" class="cls-5" transform="rotate(-68.28 302.418 166.43)" d="M0 0h62.659v91.298H0z"/><path id="Path_5" data-name="Path 5" class="cls-6" d="M917.335 2610.125l-6.454 16.231a.985.985 0 0 0 .544 1.279.986.986 0 0 0 1.279-.544l6.454-16.23a.986.986 0 0 0-.544-1.279.98.98 0 0 0-1.279.543z" transform="translate(-776.903 -2225.914)"/><path id="Path_6" data-name="Path 6" class="cls-7" d="M395.535 2236.322l-96.035-38.181a6.99 6.99 0 0 0-9.056 3.926l-2.646 6.645 100.164 65.467 11.438-28.771a6.989 6.989 0 0 0-3.865-9.086z" transform="translate(-245.488 -1874.605)"/><path id="Rectangle_5" data-name="Rectangle 5" class="cls-3" transform="rotate(-68.28 366.49 90.25)" d="M0 0h2.073v7.527H0z"/><path id="Path_7" data-name="Path 7" class="cls-1" d="M535.745 2779.944c2.294-4.043 5.734-7.262 9.115-10.145a59.154 59.154 0 0 1 5.881-4.513 27.808 27.808 0 0 1 1.72-8 55.388 55.388 0 0 1 6.778-12.129c2.191-3.146 4.852-6.675 8.615-8.615 3.7-1.911 8.468-2.235 13.408-.912a50.032 50.032 0 0 1 7.895 3.161c1.617.764 3.146 1.47 4.675 2.073 6.63 2.573 13.482 5.219 20.583 6.278 5.5.809 13.511.941 20.48-3.087a39.524 39.524 0 0 0 9.35-8.145l-4.513-1.823.764-1.911 5.2 2.1c.176-.191.353-.4.529-.6a65.433 65.433 0 0 1 8.939-8.88c1.705-1.308 4.337-3.028 7.395-3a8.532 8.532 0 0 1 7.719 5.66 9.777 9.777 0 0 1-1.794 9.38 11.6 11.6 0 0 1-8.645 3.984c-3.323.044-6.469-1.22-9.233-2.352l-4.322-1.75c-3.058 3.411-6.307 6.778-10.35 9.115-7.483 4.323-16 4.2-21.8 3.337-7.336-1.088-14.29-3.779-21.024-6.4-1.588-.617-3.22-1.382-4.807-2.117a48.616 48.616 0 0 0-7.557-3.043c-4.44-1.191-8.674-.927-11.938.75-3.337 1.735-5.719 4.881-7.865 7.969a52.507 52.507 0 0 0-6.528 11.658 26.4 26.4 0 0 0-1.47 5.969c.544-.294 1.1-.588 1.676-.838a19.066 19.066 0 0 1 11.894-1.676 12.507 12.507 0 0 1 9.233 7.763 10.745 10.745 0 0 1-1.941 10.232c-3.146 3.69-8.895 4.9-13.687 2.852a16.033 16.033 0 0 1-8.821-11 18.717 18.717 0 0 1-.515-3.543c-1.6 1.132-3.117 2.367-4.558 3.587-3.234 2.749-6.528 5.822-8.659 9.585-2.293 4.043-2.852 8.41-1.544 11.967.206.559.456 1.1.72 1.691a17.394 17.394 0 0 1 1.1 2.852c.441 1.72.323 4.058-1.323 5.469l-1.338-1.558a3.458 3.458 0 0 0 .662-3.4 15.157 15.157 0 0 0-.985-2.5c-.265-.588-.559-1.206-.794-1.838a15.655 15.655 0 0 1 .47-11.159 20.533 20.533 0 0 1 1.21-2.498zm38.034-10.041a10.466 10.466 0 0 0-7.733-6.41 17 17 0 0 0-10.585 1.529 26.24 26.24 0 0 0-2.69 1.441 18.619 18.619 0 0 0 .5 4.381 13.951 13.951 0 0 0 7.63 9.585c3.925 1.676 8.792.677 11.32-2.293a8.38 8.38 0 0 0 1.382-2.308 8.643 8.643 0 0 0 .176-5.928zm94.562-41.724a6.53 6.53 0 0 0-5.807-4.293c-1.838-.015-3.778.794-6.116 2.573a62.863 62.863 0 0 0-8.645 8.6l-.044.044 3.646 1.47c2.588 1.043 5.528 2.234 8.439 2.205a9.463 9.463 0 0 0 7.086-3.234 7.988 7.988 0 0 0 1.279-2.146 7.433 7.433 0 0 0 .162-5.219z" transform="translate(-454.856 -2321.695)"/><path id="Path_8" data-name="Path 8" class="cls-1" d="M375.736 3274.866c-6.307-1.353-10.791-3.44-14.1-6.542-4.116-3.867-5.969-9.5-4.7-14.2q-.662.507-1.323.97a80.389 80.389 0 0 1-28.143 12.806l-.47-2a78.139 78.139 0 0 0 27.419-12.482c2.705-1.94 5.6-4.249 5.6-7.012l2.058-.1a7.412 7.412 0 0 1-1.6 5.175 11.776 11.776 0 0 0-1.4 2.676c-1.544 4.719.882 9.762 3.984 12.673 3.029 2.852 7.2 4.763 13.129 6.042z" transform="translate(-278.925 -2769.086)"/><ellipse id="Ellipse_1" data-name="Ellipse 1" class="cls-8" cx="9.027" cy="1.882" rx="9.027" ry="1.882" transform="rotate(-21.696 1301.88 187.032)"/><path id="Path_9" data-name="Path 9" class="cls-1" d="M157.452 3332.814c-1.882.588-3 3.9-1.073 5.2a42.259 42.259 0 0 0 6.057 3.367l-3.484 1.382a1.915 1.915 0 0 0-.985 2.514l.073.191a1.883 1.883 0 0 0 2.426 1.132l24.567-9.777-1.529-3.837-10.188 4.058c.235-.779 1.485-4.9 1.852-5.969a3.267 3.267 0 0 0-.162-2.573 3.081 3.081 0 0 0-.823-.941 2.357 2.357 0 0 0-2.617-.368c-2.456 1.607-12.027 4.96-14.114 5.621z" transform="translate(-132.532 -2837.869)"/><path id="Path_10" data-name="Path 10" class="cls-9" d="M341.188 3344.379l.853 2.146a.931.931 0 0 1-.515 1.205l-11.482 4.573-1.544-3.882 11.482-4.572a.939.939 0 0 1 1.206.53z" transform="translate(-280.204 -2852.242)"/><ellipse id="Ellipse_2" data-name="Ellipse 2" class="cls-8" cx="1.882" cy="9.027" rx="1.882" ry="9.027" transform="rotate(-68.302 423.737 169.416)"/><path id="Path_11" data-name="Path 11" class="cls-1" d="M697.181 3395.114c1.882.588 3 3.9 1.073 5.2a42.21 42.21 0 0 1-6.057 3.367l3.484 1.382a1.915 1.915 0 0 1 .985 2.514l-.073.191a1.883 1.883 0 0 1-2.426 1.132l-24.567-9.777 1.529-3.837 10.188 4.057c-.235-.779-1.485-4.9-1.852-5.969a3.267 3.267 0 0 1 .162-2.573 3.082 3.082 0 0 1 .823-.941 2.357 2.357 0 0 1 2.617-.367c2.47 1.607 12.026 4.959 14.114 5.621z" transform="translate(-571.157 -2891.01)"/><path id="Path_12" data-name="Path 12" class="cls-9" d="M606.666 3406.689l-.853 2.147a.932.932 0 0 0 .515 1.205l11.482 4.573 1.544-3.881-11.482-4.572a.946.946 0 0 0-1.206.528z" transform="translate(-516.691 -2905.394)"/><g id="Group_2" data-name="Group 2" transform="translate(240.566 377.286)"><path id="Path_13" data-name="Path 13" class="cls-10" d="M1761.865 2634.975a57.148 57.148 0 0 1-57.175 57.176c-.838 0-1.646-.015-2.47-.059a57.173 57.173 0 1 1 59.645-57.117z" transform="translate(-1645.853 -2576.153)"/><path id="Path_14" data-name="Path 14" class="cls-1" d="M1695.122 2566.6a58.82 58.82 0 0 0-2.529 117.585c.618.015 1.22.044 1.838.044l-1.676-1.676-1.72-1.735a55.538 55.538 0 1 1 59.631-55.382 53.329 53.329 0 0 1-.412 6.675l1.47 1.47 1.426 1.426c.059-.338.1-.676.162-1.029a59.623 59.623 0 0 0 .618-8.542 58.854 58.854 0 0 0-58.808-58.836z" transform="translate(-1636.3 -2566.6)"/></g><path id="Path_15" data-name="Path 15" class="cls-6" d="M2070.73 3015.167a59.1 59.1 0 0 1-58.028 49.251c-.235 0-.471 0-.706-.015l-1.676-1.676-1.72-1.735c.559.044 1.132.073 1.691.1.794.029 1.6.059 2.411.059a55.791 55.791 0 0 0 54.955-47.472c.059-.456.132-.926.176-1.382l1.47 1.47z" transform="translate(-1713.299 -2569.488)"/><path id="Path_16" data-name="Path 16" class="cls-11" d="M1775.858 2848.327c-.044.456-.1.926-.177 1.382a55.8 55.8 0 0 1-54.955 47.472c-.809 0-1.6-.014-2.411-.059-.573-.014-1.132-.059-1.691-.1l-50.324-50.81 81.272-26.11z" transform="translate(-1421.324 -2405.545)"/><path id="Path_17" data-name="Path 17" class="cls-12" d="M1653.1 2946.109h19.847a.063.063 0 0 0 .059-.059v-8.071a.785.785 0 0 0-.779-.779H1653.2a4.508 4.508 0 0 0-4.5 4.5 4.4 4.4 0 0 0 4.4 4.409z" transform="translate(-1406.311 -2505.429)"/><circle id="Ellipse_3" data-name="Ellipse 3" class="cls-12" cx="34.255" cy="34.255" r="34.255" transform="translate(265.133 401.853)"/><path id="Path_18" data-name="Path 18" class="cls-13" d="M1900.728 2802.671a28.288 28.288 0 1 1-3.073-12.8 27.943 27.943 0 0 1 3.073 12.8z" transform="translate(-1573.069 -2366.563)"/><path id="Path_19" data-name="Path 19" class="cls-14" d="M1919.579 2831.758a21.966 21.966 0 1 1-3.073-12.805 27.946 27.946 0 0 1 3.073 12.805z" transform="translate(-1591.92 -2395.65)"/><path id="Path_20" data-name="Path 20" class="cls-12" d="M1826.414 211.591l-70.1 60.939L1654.3 155.151l70.1-60.939a10.1 10.1 0 0 1 14.261 1l5.513 6.336.221.265 5.219 6 .22.265 4.984 5.734.221.265 4.984 5.734.22.265 4.984 5.734.22.265 61.953 71.274a10.313 10.313 0 0 1 1.161 1.632l.176.309a10.091 10.091 0 0 1-2.323 12.301z" transform="translate(-1411.088 -78.297)"/><ellipse id="Ellipse_4" data-name="Ellipse 4" class="cls-15" cx="2.073" cy="2.617" rx="2.073" ry="2.617" transform="rotate(-40.98 228.303 -295.54)"/><ellipse id="Ellipse_5" data-name="Ellipse 5" class="cls-15" cx="2.073" cy="2.617" rx="2.073" ry="2.617" transform="rotate(-40.98 250.133 -303.703)"/><ellipse id="Ellipse_6" data-name="Ellipse 6" class="cls-15" cx="2.073" cy="2.617" rx="2.073" ry="2.617" transform="rotate(-40.98 271.193 -311.187)"/><ellipse id="Ellipse_7" data-name="Ellipse 7" class="cls-15" cx="2.073" cy="2.617" rx="2.073" ry="2.617" transform="rotate(-40.98 292.718 -320.179)"/><ellipse id="Ellipse_8" data-name="Ellipse 8" class="cls-15" cx="2.073" cy="2.617" rx="2.073" ry="2.617" transform="rotate(-40.994 313.766 -327.917)"/><ellipse id="Ellipse_9" data-name="Ellipse 9" class="cls-15" cx="2.073" cy="2.617" rx="2.073" ry="2.617" transform="rotate(-40.98 334.58 -335.849)"/><ellipse id="Ellipse_10" data-name="Ellipse 10" class="cls-15" cx="2.073" cy="2.617" rx="2.073" ry="2.617" transform="rotate(-40.994 355.633 -343.575)"/><ellipse id="Ellipse_11" data-name="Ellipse 11" class="cls-15" cx="2.073" cy="2.617" rx="2.073" ry="2.617" transform="rotate(-40.98 378.298 -352.198)"/><ellipse id="Ellipse_12" data-name="Ellipse 12" class="cls-15" cx="2.073" cy="2.617" rx="2.073" ry="2.617" transform="rotate(-40.98 399.708 -360.213)"/><path id="Path_21" data-name="Path 21" class="cls-16" d="M1657.959 516.341l-10.762 9.35a.507.507 0 0 1-.706-.044.507.507 0 0 1 .044-.706l10.762-9.35a.507.507 0 0 1 .706.044.507.507 0 0 1-.044.706z" transform="translate(-1404.323 -439.737)"/><path id="Path_22" data-name="Path 22" class="cls-16" d="M1668.859 530.241l-10.762 9.35a.507.507 0 0 1-.706-.044.507.507 0 0 1 .044-.706l10.762-9.35a.508.508 0 0 1 .706.044.507.507 0 0 1-.044.706z" transform="translate(-1413.62 -451.593)"/><path id="Path_23" data-name="Path 23" class="cls-16" d="M1730.259 599.941l-10.762 9.35a.507.507 0 0 1-.706-.044.507.507 0 0 1 .044-.706l10.762-9.35a.507.507 0 0 1 .706.044.493.493 0 0 1-.044.706z" transform="translate(-1465.994 -511.046)"/><path id="Path_24" data-name="Path 24" class="cls-16" d="M1741.459 612.841l-10.762 9.35a.508.508 0 0 1-.706-.044.508.508 0 0 1 .044-.706l10.762-9.35a.508.508 0 0 1 .706.044.494.494 0 0 1-.044.706z" transform="translate(-1475.547 -522.049)"/><path id="Path_25" data-name="Path 25" class="cls-16" d="M1798.759 681.541l-10.759 9.35a.508.508 0 0 1-.706-.044.507.507 0 0 1 .044-.706l10.762-9.35a.507.507 0 0 1 .706.044.492.492 0 0 1-.047.706z" transform="translate(-1524.423 -580.649)"/><path id="Path_26" data-name="Path 26" class="cls-16" d="M1809.959 694.441l-10.762 9.35a.507.507 0 0 1-.706-.044.507.507 0 0 1 .044-.706l10.762-9.35a.507.507 0 0 1 .706.044.493.493 0 0 1-.044.706z" transform="translate(-1533.976 -591.653)"/><path id="Path_27" data-name="Path 27" class="cls-16" d="M1874.659 762.541l-10.762 9.35a.507.507 0 0 1-.706-.044.508.508 0 0 1 .044-.706l10.761-9.35a.508.508 0 0 1 .706.044.493.493 0 0 1-.043.706z" transform="translate(-1589.164 -649.741)"/><path id="Path_28" data-name="Path 28" class="cls-16" d="M1885.859 775.441l-10.762 9.35a.507.507 0 0 1-.705-.044.507.507 0 0 1 .044-.706l10.762-9.35a.507.507 0 0 1 .706.044.507.507 0 0 1-.045.706z" transform="translate(-1598.718 -660.744)"/><path id="Path_29" data-name="Path 29" class="cls-16" d="M1944.559 842.941l-10.762 9.35a.507.507 0 0 1-.706-.044.507.507 0 0 1 .044-.706l10.762-9.35a.507.507 0 0 1 .706.044.507.507 0 0 1-.044.706z" transform="translate(-1648.788 -718.32)"/><path id="Path_30" data-name="Path 30" class="cls-16" d="M1955.759 855.741L1945 865.092a.507.507 0 0 1-.706-.044.507.507 0 0 1 .044-.706l10.762-9.35a.507.507 0 0 1 .706.044.506.506 0 0 1-.047.705z" transform="translate(-1658.341 -729.239)"/><path id="Path_31" data-name="Path 31" class="cls-16" d="M2014.459 923.341l-10.762 9.35a.508.508 0 0 1-.706-.044.507.507 0 0 1 .044-.706l10.762-9.35a.508.508 0 0 1 .706.044.494.494 0 0 1-.044.706z" transform="translate(-1708.411 -786.9)"/><path id="Path_32" data-name="Path 32" class="cls-16" d="M2025.659 936.141l-10.762 9.35a.507.507 0 0 1-.706-.044.507.507 0 0 1 .044-.706l10.762-9.35a.507.507 0 0 1 .706.044.492.492 0 0 1-.044.706z" transform="translate(-1717.964 -797.818)"/><path id="Path_33" data-name="Path 33" class="cls-16" d="M2084.259 1003.641l-10.762 9.35a.507.507 0 0 1-.706-.044.507.507 0 0 1 .044-.706l10.762-9.35a.508.508 0 0 1 .706.044.494.494 0 0 1-.044.706z" transform="translate(-1767.949 -855.395)"/><path id="Path_34" data-name="Path 34" class="cls-16" d="M2095.459 1016.441l-10.762 9.35a.507.507 0 0 1-.706-.044.508.508 0 0 1 .044-.706l10.761-9.35a.508.508 0 0 1 .706.044.506.506 0 0 1-.043.706z" transform="translate(-1777.503 -866.313)"/><path id="Path_35" data-name="Path 35" class="cls-16" d="M2160.258 1091.041l-10.761 9.35a.507.507 0 0 1-.706-.044.507.507 0 0 1 .044-.706l10.762-9.35a.508.508 0 0 1 .706.044.492.492 0 0 1-.045.706z" transform="translate(-1832.775 -929.945)"/><path id="Path_36" data-name="Path 36" class="cls-16" d="M2171.459 1103.941l-10.762 9.35a.507.507 0 0 1-.706-.044.508.508 0 0 1 .044-.706l10.761-9.35a.508.508 0 0 1 .706.044.506.506 0 0 1-.043.706z" transform="translate(-1842.329 -940.949)"/><path id="Path_37" data-name="Path 37" class="cls-16" d="M2231.559 1173.241l-10.762 9.35a.508.508 0 0 1-.706-.044.508.508 0 0 1 .044-.706l10.762-9.35a.508.508 0 0 1 .706.044.506.506 0 0 1-.044.706z" transform="translate(-1893.593 -1000.06)"/><path id="Path_38" data-name="Path 38" class="cls-16" d="M2242.759 1186.141l-10.762 9.35a.507.507 0 0 1-.706-.044.508.508 0 0 1 .044-.706l10.761-9.35a.507.507 0 0 1 .706.044.506.506 0 0 1-.043.706z" transform="translate(-1903.147 -1011.064)"/><path id="Rectangle_6" data-name="Rectangle 6" class="cls-15" transform="rotate(-40.98 260.11 -300.49)" d="M0 0h102.883v.338H0z"/><path id="Rectangle_7" data-name="Rectangle 7" class="cls-15" transform="rotate(-40.994 249.1 -296.269)" d="M0 0h102.883v.338H0z"/><path id="Rectangle_8" data-name="Rectangle 8" class="cls-15" transform="rotate(-40.994 239.387 -292.634)" d="M0 0h102.883v.353H0z"/><path id="Rectangle_9" data-name="Rectangle 9" class="cls-15" transform="rotate(-40.994 270.834 -304.377)" d="M0 0h102.883v.338H0z"/><path id="Rectangle_10" data-name="Rectangle 10" class="cls-15" transform="rotate(-40.994 281.461 -308.358)" d="M0 0h102.883v.338H0z"/><path id="Rectangle_11" data-name="Rectangle 11" class="cls-15" transform="rotate(-40.994 292.09 -312.339)" d="M0 0h102.883v.353H0z"/><path id="Rectangle_12" data-name="Rectangle 12" class="cls-15" transform="rotate(-40.994 302.727 -316.319)" d="M0 0h102.986v.353H0z"/><path id="Rectangle_13" data-name="Rectangle 13" class="cls-15" transform="rotate(-40.994 313.362 -320.28)" d="M0 0h102.986v.353H0z"/><path id="Rectangle_14" data-name="Rectangle 14" class="cls-15" transform="rotate(-40.994 323.528 -324.074)" d="M0 0h102.986v.353H0z"/><path id="Rectangle_15" data-name="Rectangle 15" class="cls-15" transform="rotate(-40.994 334.62 -328.24)" d="M0 0h102.986v.353H0z"/><path id="Rectangle_16" data-name="Rectangle 16" class="cls-15" transform="rotate(-40.994 344.784 -332.035)" d="M0 0h102.986v.353H0z"/><path id="Rectangle_17" data-name="Rectangle 17" class="cls-15" transform="rotate(-40.994 354.97 -335.838)" d="M0 0h102.986v.353H0z"/><path id="Rectangle_18" data-name="Rectangle 18" class="cls-15" transform="rotate(-40.994 366.049 -339.977)" d="M0 0h102.986v.353H0z"/><path id="Rectangle_19" data-name="Rectangle 19" class="cls-15" transform="rotate(-40.994 377.61 -344.31)" d="M0 0h102.986v.353H0z"/><path id="Rectangle_20" data-name="Rectangle 20" class="cls-15" transform="rotate(-40.994 388.709 -348.457)" d="M0 0h102.986v.353H0z"/><path id="Rectangle_21" data-name="Rectangle 21" class="cls-15" transform="rotate(-40.994 399.344 -352.42)" d="M0 0h102.986v.353H0z"/><path id="Rectangle_22" data-name="Rectangle 22" class="cls-15" transform="rotate(-40.994 410.436 -356.586)" d="M0 0h102.986v.353H0z"/><path id="Path_39" data-name="Path 39" class="cls-15" d="M2390.17 821.509l-77.449 67.32-.22-.265 77.508-67.364a3.023 3.023 0 0 1 .161.309z" transform="translate(-1972.52 -700.519)"/><path id="Rectangle_23" data-name="Rectangle 23" class="cls-17" transform="rotate(-137.561 71.074 56.76)" d="M0 0h94.4v112.425H0z"/><path id="Rectangle_24" data-name="Rectangle 24" class="cls-17" transform="rotate(66.94 190.36 537.435)" d="M0 0h94.4v112.425H0z"/><path id="Path_40" data-name="Path 40" class="cls-18" d="M898.562 104.762l-11.306 64.379c-.073.4.4.809 1.029.912l6.16 1.088c.632.118 1.205-.118 1.279-.515l11.306-64.379a.3.3 0 0 0 0-.162l-8.409-1.485a.72.72 0 0 0-.059.162z" transform="translate(-756.807 -89.273)"/><path id="Path_41" data-name="Path 41" class="cls-19" d="M919.3 176.756l2.5.441c.632.118 1.206-.118 1.279-.515l11.305-64.382a.3.3 0 0 0 0-.162l-2.5-.441a.407.407 0 0 1 .015.132v.044l-11.32 64.365c-.073.4-.647.62-1.279.518z" transform="translate(-784.146 -95.329)"/><path id="Path_42" data-name="Path 42" class="cls-20" d="M918.787 108.447l-11.306 64.379c-.074.4.059.75.279.794l2.176.382c.22.044.456-.25.529-.647l11.306-64.379v-.044c0-.044.015-.088.015-.118l-2.97-.515a.849.849 0 0 1-.029.148z" transform="translate(-774.048 -92.429)"/><path id="Path_43" data-name="Path 43" class="cls-4" d="M973.024 29.654S971.73 15.1 971.26 15s-6.66 13.188-6.66 13.188z" transform="translate(-822.786 -12.842)"/><path id="Path_44" data-name="Path 44" class="cls-21" d="M996.379 19.346s-.529-5.146-.779-5.146c-.323 0-2.5 4.558-2.5 4.558z" transform="translate(-847.096 -12.163)"/><path id="Path_45" data-name="Path 45" class="cls-22" d="M2512.125 1619.377a8.64 8.64 0 0 0-11.511 3.955l-26.037 53.265a8.64 8.64 0 0 0 3.955 11.512l73.921 36.122a8.64 8.64 0 0 0 11.511-3.955l26.036-53.265a8.64 8.64 0 0 0-3.955-11.512z" transform="translate(-2110.031 -1380.611)"/><path id="Path_46" data-name="Path 46" class="cls-23" d="M2504.877 1702.354l-30.977-22.1a11.463 11.463 0 0 1 1.25-3.058l12.482-24.993s23.185-31.888 23.273-32.006l29.639 15.246 46.354 31.006-.6 1.5-73.641 38.136z" transform="translate(-2110.192 -1382.052)"/><path id="Path_47" data-name="Path 47" class="cls-24" d="M2536.781 1608.191a8.638 8.638 0 0 0-12.055 1.735l-35.534 47.458a8.637 8.637 0 0 0 1.735 12.055l65.85 49.31a8.637 8.637 0 0 0 12.055-1.735l35.534-47.457a8.637 8.637 0 0 0-1.735-12.055z" transform="translate(-2121.778 -1370.352)"/><path id="Path_48" data-name="Path 48" class="cls-25" d="M2924.4 2229.8l-15.849-10.262a2.34 2.34 0 0 0-3.558.309c-1.691 2.058-7.4 14.628-7.4 14.628z" transform="translate(-2471.6 -1892.68)"/><path id="Path_49" data-name="Path 49" class="cls-26" d="M2924.827 2234.342l-14.07-10.2a2.34 2.34 0 0 0-3.558.309c-1.691 2.058-10.1 13.908-10.1 13.908z" transform="translate(-2471.173 -1896.604)"/><path id="Path_50" data-name="Path 50" class="cls-23" d="M2809.836 1914.287a1.2 1.2 0 0 1-.235-1.676l27.286-36.475a1.2 1.2 0 0 1 1.676-.235 1.2 1.2 0 0 1 .235 1.676l-27.286 36.475a1.2 1.2 0 0 1-1.676.235z" transform="translate(-2396.332 -1599.954)"/><path id="Path_51" data-name="Path 51" class="cls-23" d="M2837.536 1884.525a1.2 1.2 0 0 1-.235-1.676l19.362-25.713a1.2 1.2 0 0 1 1.676-.235 1.2 1.2 0 0 1 .235 1.676l-19.362 25.713a1.209 1.209 0 0 1-1.676.235z" transform="translate(-2419.96 -1583.747)"/><path id="Path_52" data-name="Path 52" class="cls-23" d="M2754.635 1874.187a1.2 1.2 0 0 1-.235-1.676l27.287-36.475a1.2 1.2 0 0 1 1.676-.235 1.2 1.2 0 0 1 .235 1.676l-27.287 36.475a1.209 1.209 0 0 1-1.676.235z" transform="translate(-2349.248 -1565.749)"/><path id="Path_53" data-name="Path 53" class="cls-23" d="M2795.436 1837.326a1.2 1.2 0 0 1-.235-1.676l16.731-22.214a1.2 1.2 0 0 1 1.676-.235 1.2 1.2 0 0 1 .235 1.676l-16.731 22.214a1.2 1.2 0 0 1-1.676.235z" transform="translate(-2384.05 -1546.472)"/><path id="Path_54" data-name="Path 54" class="cls-23" d="M2744.936 1820.431a1.2 1.2 0 0 1-.235-1.676l19.892-26.419a1.2 1.2 0 0 1 1.676-.235 1.2 1.2 0 0 1 .235 1.676L2746.6 1820.2a1.179 1.179 0 0 1-1.661.235z" transform="translate(-2340.974 -1528.474)"/><path id="Path_55" data-name="Path 55" class="cls-23" d="M2663.336 1807.787a1.2 1.2 0 0 1-.235-1.676l27.287-36.475a1.2 1.2 0 0 1 1.676-.235 1.2 1.2 0 0 1 .235 1.676l-27.287 36.475a1.2 1.2 0 0 1-1.676.235z" transform="translate(-2271.37 -1509.111)"/><path id="Path_56" data-name="Path 56" class="cls-23" d="M2634.936 1787.087a1.2 1.2 0 0 1-.235-1.676l27.286-36.475a1.2 1.2 0 0 1 1.676-.235 1.2 1.2 0 0 1 .235 1.676l-27.3 36.475a1.18 1.18 0 0 1-1.661.235z" transform="translate(-2247.146 -1491.454)"/><path id="Path_57" data-name="Path 57" class="cls-21" d="M3303.371 2127.047l-13.334 63.982c-.088.4.368.823 1 .956l6.131 1.279c.632.132 1.22-.074 1.294-.471l13.335-63.982a.3.3 0 0 0 0-.162l-8.365-1.75a.443.443 0 0 0-.061.148z" transform="translate(-2806.332 -1814.258)"/><path id="Path_58" data-name="Path 58" class="cls-16" d="M3321.7 2199.814l2.484.515c.632.132 1.22-.074 1.294-.471l13.334-63.982a.3.3 0 0 0 0-.162l-2.485-.514a.4.4 0 0 1 0 .132v.044l-13.334 63.982c-.087.383-.661.589-1.293.456z" transform="translate(-2833.35 -1821.337)"/><path id="Path_59" data-name="Path 59" class="cls-27" d="M3323.463 2131.162l-13.334 63.982c-.088.4.03.75.25.794l2.161.456c.22.044.471-.235.559-.632l13.334-63.982v-.044a.367.367 0 0 0 .015-.118l-2.955-.617a.631.631 0 0 0-.03.161z" transform="translate(-2823.455 -1817.755)"/><path id="Path_60" data-name="Path 60" class="cls-14" d="M3389.48 2053.312s-.823-14.6-1.308-14.716-7.072 12.967-7.072 12.967z" transform="translate(-2884.017 -1738.935)"/><path id="Path_61" data-name="Path 61" class="cls-24" d="M3414.764 2043.075s-.368-5.16-.617-5.175c-.324-.015-2.647 4.469-2.647 4.469z" transform="translate(-2909.947 -1738.343)"/><path id="Path_62" data-name="Path 62" class="cls-28" d="M3124.859 2041.972l37.666 53.412c.235.323.853.294 1.382-.088l5.116-3.6c.529-.368.779-.941.544-1.264l-37.666-53.412a.446.446 0 0 0-.118-.118l-6.983 4.925a.427.427 0 0 0 .059.145z" transform="translate(-2665.397 -1737.489)"/><path id="Path_63" data-name="Path 63" class="cls-29" d="M3195.44 2093.164l2.073-1.47c.529-.368.779-.941.544-1.265l-37.666-53.411a.45.45 0 0 0-.118-.118l-2.073 1.47c.029.029.074.059.088.088l.03.029 37.666 53.411c.216.325-.015.883-.544 1.266z" transform="translate(-2693.887 -1737.489)"/><path id="Path_64" data-name="Path 64" class="cls-30" d="M3141.588 2048.667l37.666 53.411c.235.324.573.485.75.353l1.808-1.265c.191-.132.147-.5-.088-.838l-37.666-53.412c-.015-.015-.015-.03-.029-.03-.029-.03-.044-.059-.073-.088l-2.455 1.735z" transform="translate(-2679.643 -1745.934)"/><path id="Path_65" data-name="Path 65" class="cls-31" d="M3104.606 1984.154s-11.232-9.35-11.644-9.086 4.646 14.011 4.646 14.011z" transform="translate(-2638.22 -1684.743)"/><path id="Path_66" data-name="Path 66" class="cls-30" d="M3096.79 1977.432s-4.028-3.249-4.2-3.073c-.22.22 1.47 4.984 1.47 4.984z" transform="translate(-2637.902 -1684.138)"/><path id="Path_67" data-name="Path 67" class="cls-27" d="M1256.086 716.205c-1.147 3.646-43.65 44.105-84.153 78.64-41.988 35.8-147.459 93.048-147.459 93.048-72.818 29.124-190.785 43.032-190.785 43.032l-74.789-1.587 1.441-126.8 194.02 4.528c31.594-20.568 113.336-41.915 135.595-50.633 3.631-1.426 5.69-2.22 5.69-2.22 11-9.424 25.155-9.983 32.9-14.3 10.541-5.866 20.788-10.056 29.712-18.186 8.483-7.733 21.391-12.041 30.609-17.789 13.629-8.483 22.95-17.039 28.3-19.495 1.779-.809 2.764-1.235 2.764-1.235 37.714 1.021 36.155 32.997 36.155 32.997z" transform="translate(-647.328 -582.808)"/><path id="Path_68" data-name="Path 68" class="cls-15" d="M2859.5 691.6c-37.857 38.019-173.7 154.943-173.7 154.943l-1.5-50.471c3.631-1.426 56.352-36.9 56.352-36.9 14.246-7.5 35.608-19.245 43.5-23.817 15.3-8.865 40.709-23.244 51.6-29.7S2859.5 691.6 2859.5 691.6z" transform="translate(-2289.659 -589.973)"/><path id="Path_69" data-name="Path 69" class="cls-16" d="M1283.332 910.445l-41.915-7.292s-104.9-25.419-145.769-30.006c0 0-99.017-12.452-133.345-15.408 0 0-190.3-8.733-218.043-10.821L728 768.146l74.024-36.946s82.492 14.2 166.983 30.521c67.172 12.982 135.624 27.3 164.881 36.887l76.42 25.39c8.233 2.735 43.958 15.849 53.147 21.421 5.925 3.587 13.085 2.97 20.73 14.114 0 0 15.128 8.586 24.846 24.523 0 0 8.174-2.044 8.527 3.514s-14.452 22.875-34.226 22.875z" transform="translate(-620.971 -623.751)"/><path id="Path_70" data-name="Path 70" class="cls-15" d="M4066.506 194.95c0 31.844-32.8 45.5-49.722 50.427a85.572 85.572 0 0 0-21.2 9.424l-20.876 12.967s-1.559-30.433-35.108-33.55l57.823-48.369 12.732-10.644c9.306-8.16 24.6-15.878 36.372-12.026a27.024 27.024 0 0 1 14.614 10.776c3.277 4.945 5.365 11.733 5.365 20.995z" transform="translate(-3360.406 -138.369)"/><path id="Path_71" data-name="Path 71" class="cls-32" d="M501.1 942.827s39.46 7.586 41.209-1.544c19.656-102.6 2.117-251.783 2.117-251.783l-51.326 3.94z" transform="translate(-420.605 -588.182)"/><path id="Path_72" data-name="Path 72" class="cls-21" d="M2662.6 1036.711c-90.549-48.119-318.6-85.2-318.6-85.2l3.411-12.614c67.172 12.982 135.624 27.3 164.881 36.887l76.42 25.39c8.233 2.734 43.179 14.173 52.78 19.024 8.615 4.355 19.068 12.191 21.108 16.513z" transform="translate(-1999.389 -800.915)"/><path id="Path_73" data-name="Path 73" class="cls-33" d="M969.1 994.3V789.265a10.867 10.867 0 0 1 10.865-10.865h136.727a10.867 10.867 0 0 1 10.865 10.865V994.3a10.867 10.867 0 0 1-10.865 10.865H979.965A10.877 10.877 0 0 1 969.1 994.3z" transform="translate(-826.625 -664.012)"/><path id="Path_74" data-name="Path 74" class="cls-34" d="M1427 1065.5V875.2a4.1 4.1 0 0 1 4.1-4.1h73.068a4.1 4.1 0 0 1 4.1 4.1v190.3a4.1 4.1 0 0 1-4.1 4.1H1431.1a4.1 4.1 0 0 1-4.1-4.1z" transform="translate(-1217.205 -743.083)"/><path id="Path_75" data-name="Path 75" class="cls-9" d="M1014.9 1370.728v-68.3a2.823 2.823 0 0 1 2.823-2.823h48.06a2.823 2.823 0 0 1 2.823 2.823v68.3a2.824 2.824 0 0 1-2.823 2.823h-48.06a2.833 2.833 0 0 1-2.823-2.823z" transform="translate(-865.691 -1108.586)"/><g id="Group_3" data-name="Group 3" transform="translate(213.882 131.751)"><path id="Path_76" data-name="Path 76" class="cls-1" d="M1901.1 906.762v-8.189a2.07 2.07 0 0 1 2.073-2.073h3.4a2.071 2.071 0 0 1 2.073 2.073v8.189a2.071 2.071 0 0 1-2.073 2.073h-3.4a2.071 2.071 0 0 1-2.073-2.073z" transform="translate(-1835.486 -896.5)"/><path id="Path_77" data-name="Path 77" class="cls-1" d="M1901.1 1000.662v-8.189a2.07 2.07 0 0 1 2.073-2.073h3.4a2.071 2.071 0 0 1 2.073 2.073v8.189a2.071 2.071 0 0 1-2.073 2.073h-3.4a2.08 2.08 0 0 1-2.073-2.073z" transform="translate(-1835.486 -976.595)"/><path id="Path_78" data-name="Path 78" class="cls-1" d="M1901.1 1094.562v-8.189a2.071 2.071 0 0 1 2.073-2.073h3.4a2.071 2.071 0 0 1 2.073 2.073v8.189a2.071 2.071 0 0 1-2.073 2.073h-3.4a2.09 2.09 0 0 1-2.073-2.073z" transform="translate(-1835.486 -1056.69)"/><path id="Path_79" data-name="Path 79" class="cls-1" d="M1901.1 1188.362v-8.189a2.07 2.07 0 0 1 2.073-2.073h3.4a2.071 2.071 0 0 1 2.073 2.073v8.189a2.071 2.071 0 0 1-2.073 2.073h-3.4a2.071 2.071 0 0 1-2.073-2.073z" transform="translate(-1835.486 -1136.7)"/><path id="Path_80" data-name="Path 80" class="cls-1" d="M1901.1 1282.262v-8.189a2.071 2.071 0 0 1 2.073-2.073h3.4a2.071 2.071 0 0 1 2.073 2.073v8.189a2.071 2.071 0 0 1-2.073 2.073h-3.4a2.089 2.089 0 0 1-2.073-2.073z" transform="translate(-1835.486 -1216.795)"/><path id="Path_81" data-name="Path 81" class="cls-1" d="M1901.1 1376.147v-8.174a2.07 2.07 0 0 1 2.073-2.073h3.4a2.071 2.071 0 0 1 2.073 2.073v8.189a2.071 2.071 0 0 1-2.073 2.073h-3.4a2.093 2.093 0 0 1-2.073-2.088z" transform="translate(-1835.486 -1296.89)"/><path id="Path_82" data-name="Path 82" class="cls-1" d="M1901.1 1469.962v-8.189a2.07 2.07 0 0 1 2.073-2.073h3.4a2.071 2.071 0 0 1 2.073 2.073v8.189a2.071 2.071 0 0 1-2.073 2.073h-3.4a2.089 2.089 0 0 1-2.073-2.073z" transform="translate(-1835.486 -1376.9)"/><path id="Path_83" data-name="Path 83" class="cls-1" d="M1901.1 1563.762v-8.189a2.071 2.071 0 0 1 2.073-2.073h3.4a2.071 2.071 0 0 1 2.073 2.073v8.189a2.071 2.071 0 0 1-2.073 2.073h-3.4a2.07 2.07 0 0 1-2.073-2.073z" transform="translate(-1835.486 -1456.909)"/><path id="Path_84" data-name="Path 84" class="cls-1" d="M1901.1 1657.662v-8.189a2.07 2.07 0 0 1 2.073-2.073h3.4a2.071 2.071 0 0 1 2.073 2.073v8.189a2.071 2.071 0 0 1-2.073 2.073h-3.4a2.07 2.07 0 0 1-2.073-2.073z" transform="translate(-1835.486 -1537.004)"/><path id="Path_85" data-name="Path 85" class="cls-1" d="M1901.1 1751.562v-8.189a2.071 2.071 0 0 1 2.073-2.073h3.4a2.071 2.071 0 0 1 2.073 2.073v8.189a2.071 2.071 0 0 1-2.073 2.073h-3.4a2.089 2.089 0 0 1-2.073-2.073z" transform="translate(-1835.486 -1617.099)"/><path id="Path_86" data-name="Path 86" class="cls-1" d="M1901.1 1845.362v-8.189a2.07 2.07 0 0 1 2.073-2.073h3.4a2.071 2.071 0 0 1 2.073 2.073v8.189a2.071 2.071 0 0 1-2.073 2.073h-3.4a2.07 2.07 0 0 1-2.073-2.073z" transform="translate(-1835.486 -1697.109)"/><path id="Path_87" data-name="Path 87" class="cls-1" d="M1901.1 1939.262v-8.189a2.071 2.071 0 0 1 2.073-2.073h3.4a2.071 2.071 0 0 1 2.073 2.073v8.189a2.071 2.071 0 0 1-2.073 2.073h-3.4a2.089 2.089 0 0 1-2.073-2.073z" transform="translate(-1835.486 -1777.204)"/><path id="Path_88" data-name="Path 88" class="cls-1" d="M1901.1 2033.147v-8.174a2.07 2.07 0 0 1 2.073-2.073h3.4a2.071 2.071 0 0 1 2.073 2.073v8.189a2.071 2.071 0 0 1-2.073 2.073h-3.4a2.093 2.093 0 0 1-2.073-2.088z" transform="translate(-1835.486 -1857.299)"/><path id="Path_89" data-name="Path 89" class="cls-1" d="M1901.1 2126.962v-8.189a2.071 2.071 0 0 1 2.073-2.073h3.4a2.071 2.071 0 0 1 2.073 2.073v8.189a2.071 2.071 0 0 1-2.073 2.073h-3.4a2.08 2.08 0 0 1-2.073-2.073z" transform="translate(-1835.486 -1937.308)"/><path id="Path_90" data-name="Path 90" class="cls-1" d="M1817.5 910.3v-10.244a.458.458 0 0 1 .456-.456h10.244a.458.458 0 0 1 .456.456V910.3a.458.458 0 0 1-.456.456h-10.247a.458.458 0 0 1-.453-.456z" transform="translate(-1764.177 -899.144)"/><path id="Path_91" data-name="Path 91" class="cls-1" d="M1729.6 1048v-10.247a.458.458 0 0 1 .456-.456h10.244a.458.458 0 0 1 .456.456V1048a.458.458 0 0 1-.456.456h-10.247a.44.44 0 0 1-.453-.456z" transform="translate(-1689.199 -1016.6)"/><path id="Path_92" data-name="Path 92" class="cls-1" d="M1641.6 1068.3v-10.247a.458.458 0 0 1 .456-.456h10.244a.458.458 0 0 1 .456.456v10.247a.458.458 0 0 1-.456.456h-10.247a.44.44 0 0 1-.453-.456z" transform="translate(-1614.137 -1033.915)"/><path id="Path_93" data-name="Path 93" class="cls-1" d="M1553.7 1115.6v-10.247a.458.458 0 0 1 .456-.456h10.244a.458.458 0 0 1 .456.456v10.247a.458.458 0 0 1-.456.456h-10.247a.449.449 0 0 1-.453-.456z" transform="translate(-1539.16 -1074.261)"/><path id="Path_94" data-name="Path 94" class="cls-1" d="M1456.1 910.274v-10.189a.489.489 0 0 1 .485-.485h11.615a.49.49 0 0 1 .485.485v10.188a.49.49 0 0 1-.485.485h-11.615a.48.48 0 0 1-.485-.484z" transform="translate(-1455.909 -899.144)"/><path id="Path_95" data-name="Path 95" class="cls-1" d="M1456.1 1002.774v-10.189a.489.489 0 0 1 .485-.485h11.615a.49.49 0 0 1 .485.485v10.188a.49.49 0 0 1-.485.485h-11.615a.471.471 0 0 1-.485-.484z" transform="translate(-1455.909 -978.045)"/><path id="Path_96" data-name="Path 96" class="cls-1" d="M1456.1 1092.474v-10.188a.489.489 0 0 1 .485-.485h11.615a.49.49 0 0 1 .485.485v10.188a.49.49 0 0 1-.485.485h-11.615a.471.471 0 0 1-.485-.485z" transform="translate(-1455.909 -1054.557)"/><path id="Path_97" data-name="Path 97" class="cls-1" d="M1456.1 1186.3v-13.437a.558.558 0 0 1 .559-.559h11.467a.559.559 0 0 1 .559.559v13.437a.559.559 0 0 1-.559.559h-11.467a.558.558 0 0 1-.559-.559z" transform="translate(-1455.909 -1131.752)"/><path id="Path_98" data-name="Path 98" class="cls-1" d="M1456.1 1748.6v-13.437a.558.558 0 0 1 .559-.559h11.467a.559.559 0 0 1 .559.559v13.437a.559.559 0 0 1-.559.559h-11.467a.558.558 0 0 1-.559-.559z" transform="translate(-1455.909 -1611.384)"/><path id="Path_99" data-name="Path 99" class="cls-1" d="M1456.1 1861.327v-10.042a.49.49 0 0 1 .485-.485h11.615a.49.49 0 0 1 .485.485v10.042a.49.49 0 0 1-.485.485h-11.615a.49.49 0 0 1-.485-.485z" transform="translate(-1455.909 -1710.5)"/><path id="Path_100" data-name="Path 100" class="cls-1" d="M1456.1 1348.989v-62.012a1.179 1.179 0 0 1 1.176-1.176h10.232a1.18 1.18 0 0 1 1.176 1.176v62.012a1.18 1.18 0 0 1-1.176 1.176h-10.232a1.179 1.179 0 0 1-1.176-1.176z" transform="translate(-1455.909 -1228.566)"/><path id="Path_101" data-name="Path 101" class="cls-1" d="M1553.7 1206.1v-10.247a.458.458 0 0 1 .456-.456h10.244a.458.458 0 0 1 .456.456v10.247a.458.458 0 0 1-.456.456h-10.247a.458.458 0 0 1-.453-.456z" transform="translate(-1539.16 -1151.456)"/><path id="Path_102" data-name="Path 102" class="cls-1" d="M1553.7 1296.588v-10.232a.458.458 0 0 1 .456-.456h10.244a.458.458 0 0 1 .456.456v10.244a.458.458 0 0 1-.456.456h-10.247a.461.461 0 0 1-.453-.468z" transform="translate(-1539.16 -1228.651)"/><path id="Path_103" data-name="Path 103" class="cls-1" d="M1553.7 1387v-10.247a.458.458 0 0 1 .456-.456h10.244a.458.458 0 0 1 .456.456V1387a.458.458 0 0 1-.456.456h-10.247a.458.458 0 0 1-.453-.456z" transform="translate(-1539.16 -1305.761)"/><path id="Path_104" data-name="Path 104" class="cls-1" d="M1553.7 1477.5v-10.247a.458.458 0 0 1 .456-.456h10.244a.458.458 0 0 1 .456.456v10.247a.458.458 0 0 1-.456.456h-10.247a.458.458 0 0 1-.453-.456z" transform="translate(-1539.16 -1382.956)"/><path id="Path_105" data-name="Path 105" class="cls-1" d="M1553.7 1567.9v-10.247a.458.458 0 0 1 .456-.456h10.244a.458.458 0 0 1 .456.456v10.247a.458.458 0 0 1-.456.456h-10.247a.44.44 0 0 1-.453-.456z" transform="translate(-1539.16 -1460.065)"/><path id="Path_106" data-name="Path 106" class="cls-1" d="M1553.7 1658.4v-10.247a.458.458 0 0 1 .456-.456h10.244a.458.458 0 0 1 .456.456v10.247a.458.458 0 0 1-.456.456h-10.247a.458.458 0 0 1-.453-.456z" transform="translate(-1539.16 -1537.26)"/><path id="Path_107" data-name="Path 107" class="cls-1" d="M1553.7 1748.8v-10.247a.458.458 0 0 1 .456-.456h10.244a.458.458 0 0 1 .456.456v10.247a.458.458 0 0 1-.456.456h-10.247a.44.44 0 0 1-.453-.456z" transform="translate(-1539.16 -1614.37)"/><path id="Path_108" data-name="Path 108" class="cls-1" d="M1553.7 1839.3v-10.247a.458.458 0 0 1 .456-.456h10.244a.458.458 0 0 1 .456.456v10.247a.458.458 0 0 1-.456.456h-10.247a.458.458 0 0 1-.453-.456z" transform="translate(-1539.16 -1691.564)"/><path id="Path_109" data-name="Path 109" class="cls-1" d="M1454.8 1948.386v-7.792a1.8 1.8 0 0 1 1.794-1.794h2.9a1.8 1.8 0 0 1 1.794 1.794v7.792a1.8 1.8 0 0 1-1.794 1.794h-2.9a1.782 1.782 0 0 1-1.794-1.794z" transform="translate(-1454.8 -1785.563)"/><path id="Path_110" data-name="Path 110" class="cls-1" d="M1454.8 2039.186v-7.792a1.8 1.8 0 0 1 1.794-1.794h2.9a1.8 1.8 0 0 1 1.794 1.794v7.792a1.8 1.8 0 0 1-1.794 1.793h-2.9a1.791 1.791 0 0 1-1.794-1.793z" transform="translate(-1454.8 -1863.014)"/><path id="Path_111" data-name="Path 111" class="cls-1" d="M1504.2 2039.186v-7.792a1.8 1.8 0 0 1 1.794-1.794h2.9a1.8 1.8 0 0 1 1.794 1.794v7.792a1.8 1.8 0 0 1-1.794 1.793h-2.9a1.8 1.8 0 0 1-1.794-1.793z" transform="translate(-1496.937 -1863.014)"/><path id="Path_112" data-name="Path 112" class="cls-1" d="M1454.8 2129.885v-7.792a1.8 1.8 0 0 1 1.794-1.794h2.9a1.8 1.8 0 0 1 1.794 1.794v7.792a1.8 1.8 0 0 1-1.794 1.793h-2.9a1.791 1.791 0 0 1-1.794-1.793z" transform="translate(-1454.8 -1940.379)"/><path id="Path_113" data-name="Path 113" class="cls-1" d="M1641.6 1159.6v-10.247a.458.458 0 0 1 .456-.456h10.244a.458.458 0 0 1 .456.456v10.247a.458.458 0 0 1-.456.456h-10.247a.44.44 0 0 1-.453-.456z" transform="translate(-1614.137 -1111.793)"/><path id="Path_114" data-name="Path 114" class="cls-1" d="M1641.6 1250.9v-10.247a.458.458 0 0 1 .456-.456h10.244a.458.458 0 0 1 .456.456v10.247a.458.458 0 0 1-.456.456h-10.247a.44.44 0 0 1-.453-.456z" transform="translate(-1614.137 -1189.67)"/><path id="Path_115" data-name="Path 115" class="cls-1" d="M1641.6 1342.2v-10.247a.458.458 0 0 1 .456-.456h10.244a.458.458 0 0 1 .456.456v10.247a.458.458 0 0 1-.456.456h-10.247a.44.44 0 0 1-.453-.456z" transform="translate(-1614.137 -1267.547)"/><path id="Path_116" data-name="Path 116" class="cls-1" d="M1641.6 1433v-10.247a.458.458 0 0 1 .456-.456h10.244a.458.458 0 0 1 .456.456V1433a.458.458 0 0 1-.456.456h-10.247a.458.458 0 0 1-.453-.456z" transform="translate(-1614.137 -1344.998)"/><path id="Path_117" data-name="Path 117" class="cls-1" d="M1641.6 1524.3v-10.247a.458.458 0 0 1 .456-.456h10.244a.458.458 0 0 1 .456.456v10.247a.458.458 0 0 1-.456.456h-10.247a.458.458 0 0 1-.453-.456z" transform="translate(-1614.137 -1422.875)"/><path id="Path_118" data-name="Path 118" class="cls-1" d="M1641.6 1611.7v-10.247a.458.458 0 0 1 .456-.456h10.244a.458.458 0 0 1 .456.456v10.247a.458.458 0 0 1-.456.456h-10.247a.458.458 0 0 1-.453-.456z" transform="translate(-1614.137 -1497.426)"/><path id="Path_119" data-name="Path 119" class="cls-1" d="M1641.6 1702.1v-10.247a.458.458 0 0 1 .456-.456h10.244a.458.458 0 0 1 .456.456v10.247a.458.458 0 0 1-.456.456h-10.247a.44.44 0 0 1-.453-.456z" transform="translate(-1614.137 -1574.535)"/><path id="Path_120" data-name="Path 120" class="cls-1" d="M1641.6 1792.6v-10.247a.458.458 0 0 1 .456-.456h10.244a.458.458 0 0 1 .456.456v10.247a.458.458 0 0 1-.456.456h-10.247a.458.458 0 0 1-.453-.456z" transform="translate(-1614.137 -1651.73)"/><path id="Path_121" data-name="Path 121" class="cls-1" d="M1641.6 1882.5v-10.247a.458.458 0 0 1 .456-.456h10.244a.458.458 0 0 1 .456.456v10.247a.458.458 0 0 1-.456.456h-10.247a.458.458 0 0 1-.453-.456z" transform="translate(-1614.137 -1728.413)"/><path id="Path_122" data-name="Path 122" class="cls-1" d="M1641.6 1972.4v-10.247a.458.458 0 0 1 .456-.456h10.244a.458.458 0 0 1 .456.456v10.247a.458.458 0 0 1-.456.456h-10.247a.458.458 0 0 1-.453-.456z" transform="translate(-1614.137 -1805.096)"/><path id="Path_123" data-name="Path 123" class="cls-1" d="M1553.7 1928.9v-10.247a.458.458 0 0 1 .456-.456h10.244a.458.458 0 0 1 .456.456v10.247a.458.458 0 0 1-.456.456h-10.247a.458.458 0 0 1-.453-.456z" transform="translate(-1539.16 -1767.992)"/><path id="Path_124" data-name="Path 124" class="cls-1" d="M1641.6 2075.406v-19.774a.628.628 0 0 1 .632-.632h9.894a.628.628 0 0 1 .632.632v19.774a.628.628 0 0 1-.632.632h-9.894a.637.637 0 0 1-.632-.632z" transform="translate(-1614.137 -1884.679)"/><path id="Path_125" data-name="Path 125" class="cls-1" d="M1553.7 2034.957v-26.522a.737.737 0 0 1 .735-.735h9.7a.737.737 0 0 1 .735.735v26.522a.737.737 0 0 1-.735.735h-9.7a.728.728 0 0 1-.735-.735z" transform="translate(-1539.16 -1844.333)"/><path id="Path_126" data-name="Path 126" class="cls-1" d="M1641.6 920.227v-19.995a.628.628 0 0 1 .632-.632h9.894a.628.628 0 0 1 .632.632v19.994a.627.627 0 0 1-.632.632h-9.894a.628.628 0 0 1-.632-.631z" transform="translate(-1614.137 -899.144)"/><path id="Path_127" data-name="Path 127" class="cls-1" d="M1553.7 925.739v-26.9a.728.728 0 0 1 .735-.735h9.688a.728.728 0 0 1 .735.735v26.9a.728.728 0 0 1-.735.735h-9.688a.728.728 0 0 1-.735-.735z" transform="translate(-1539.16 -897.865)"/><path id="Path_128" data-name="Path 128" class="cls-1" d="M1729.6 1138.9v-10.247a.458.458 0 0 1 .456-.456h10.244a.458.458 0 0 1 .456.456v10.247a.458.458 0 0 1-.456.456h-10.247a.458.458 0 0 1-.453-.456z" transform="translate(-1689.199 -1094.136)"/><path id="Path_129" data-name="Path 129" class="cls-1" d="M1729.6 1229.2v-10.247a.458.458 0 0 1 .456-.456h10.244a.458.458 0 0 1 .456.456v10.247a.458.458 0 0 1-.456.456h-10.247a.458.458 0 0 1-.453-.456z" transform="translate(-1689.199 -1171.16)"/><path id="Path_130" data-name="Path 130" class="cls-1" d="M1729.6 1320v-10.247a.458.458 0 0 1 .456-.456h10.244a.458.458 0 0 1 .456.456V1320a.458.458 0 0 1-.456.456h-10.247a.458.458 0 0 1-.453-.456z" transform="translate(-1689.199 -1248.611)"/><path id="Path_131" data-name="Path 131" class="cls-1" d="M1729.6 1410.8v-10.247a.458.458 0 0 1 .456-.456h10.244a.458.458 0 0 1 .456.456v10.247a.458.458 0 0 1-.456.456h-10.247a.44.44 0 0 1-.453-.456z" transform="translate(-1689.199 -1326.062)"/><path id="Path_132" data-name="Path 132" class="cls-1" d="M1729.6 1501.1v-10.247a.458.458 0 0 1 .456-.456h10.244a.458.458 0 0 1 .456.456v10.247a.458.458 0 0 1-.456.456h-10.247a.458.458 0 0 1-.453-.456z" transform="translate(-1689.199 -1403.086)"/><path id="Path_133" data-name="Path 133" class="cls-1" d="M1729.6 1589.3v-10.247a.458.458 0 0 1 .456-.456h10.244a.458.458 0 0 1 .456.456v10.247a.458.458 0 0 1-.456.456h-10.247a.44.44 0 0 1-.453-.456z" transform="translate(-1689.199 -1478.319)"/><path id="Path_134" data-name="Path 134" class="cls-1" d="M1729.6 1680.9v-10.247a.458.458 0 0 1 .456-.456h10.244a.458.458 0 0 1 .456.456v10.247a.458.458 0 0 1-.456.456h-10.247a.458.458 0 0 1-.453-.456z" transform="translate(-1689.199 -1556.452)"/><path id="Path_135" data-name="Path 135" class="cls-1" d="M1729.6 1771.4v-10.247a.458.458 0 0 1 .456-.456h10.244a.458.458 0 0 1 .456.456v10.247a.458.458 0 0 1-.456.456h-10.247a.458.458 0 0 1-.453-.456z" transform="translate(-1689.199 -1633.647)"/><path id="Path_136" data-name="Path 136" class="cls-1" d="M1729.6 1860.3v-10.247a.458.458 0 0 1 .456-.456h10.244a.458.458 0 0 1 .456.456v10.247a.458.458 0 0 1-.456.456h-10.247a.44.44 0 0 1-.453-.456z" transform="translate(-1689.199 -1709.477)"/><path id="Path_137" data-name="Path 137" class="cls-1" d="M1729.6 1953v-10.247a.458.458 0 0 1 .456-.456h10.244a.458.458 0 0 1 .456.456V1953a.458.458 0 0 1-.456.456h-10.247a.44.44 0 0 1-.453-.456z" transform="translate(-1689.199 -1788.548)"/><path id="Path_138" data-name="Path 138" class="cls-1" d="M1729.6 2041.6v-10.247a.458.458 0 0 1 .456-.456h10.244a.458.458 0 0 1 .456.456v10.247a.458.458 0 0 1-.456.456h-10.247a.44.44 0 0 1-.453-.456z" transform="translate(-1689.199 -1864.123)"/><path id="Path_139" data-name="Path 139" class="cls-1" d="M1729.6 2132.8v-10.247a.458.458 0 0 1 .456-.456h10.244a.458.458 0 0 1 .456.456v10.247a.458.458 0 0 1-.456.456h-10.247a.44.44 0 0 1-.453-.456z" transform="translate(-1689.199 -1941.914)"/><path id="Path_140" data-name="Path 140" class="cls-1" d="M1817.5 1002.4v-10.244a.458.458 0 0 1 .456-.456h10.244a.458.458 0 0 1 .456.456v10.244a.458.458 0 0 1-.456.456h-10.247a.44.44 0 0 1-.453-.456z" transform="translate(-1764.177 -977.704)"/><path id="Path_141" data-name="Path 141" class="cls-1" d="M1817.5 1091.8v-10.247a.458.458 0 0 1 .456-.456h10.244a.458.458 0 0 1 .456.456v10.247a.458.458 0 0 1-.456.456h-10.247a.458.458 0 0 1-.453-.456z" transform="translate(-1764.177 -1053.961)"/><path id="Path_142" data-name="Path 142" class="cls-1" d="M1817.5 1183.4v-10.247a.458.458 0 0 1 .456-.456h10.244a.458.458 0 0 1 .456.456v10.247a.458.458 0 0 1-.456.456h-10.247a.458.458 0 0 1-.453-.456z" transform="translate(-1764.177 -1132.094)"/><path id="Path_143" data-name="Path 143" class="cls-1" d="M1817.5 1272.7v-10.247a.458.458 0 0 1 .456-.456h10.244a.458.458 0 0 1 .456.456v10.247a.458.458 0 0 1-.456.456h-10.247a.458.458 0 0 1-.453-.456z" transform="translate(-1764.177 -1208.265)"/><path id="Path_144" data-name="Path 144" class="cls-1" d="M1817.5 1364.8v-10.247a.458.458 0 0 1 .456-.456h10.244a.458.458 0 0 1 .456.456v10.247a.458.458 0 0 1-.456.456h-10.247a.458.458 0 0 1-.453-.456z" transform="translate(-1764.177 -1286.825)"/><path id="Path_145" data-name="Path 145" class="cls-1" d="M1817.5 1453.3v-10.247a.458.458 0 0 1 .456-.456h10.244a.458.458 0 0 1 .456.456v10.247a.458.458 0 0 1-.456.456h-10.247a.458.458 0 0 1-.453-.456z" transform="translate(-1764.177 -1362.313)"/><path id="Path_146" data-name="Path 146" class="cls-1" d="M1817.5 1545.2v-10.247a.458.458 0 0 1 .456-.456h10.244a.458.458 0 0 1 .456.456v10.247a.458.458 0 0 1-.456.456h-10.247a.449.449 0 0 1-.453-.456z" transform="translate(-1764.177 -1440.703)"/><path id="Path_147" data-name="Path 147" class="cls-1" d="M1817.5 1634.6v-10.247a.458.458 0 0 1 .456-.456h10.244a.458.458 0 0 1 .456.456v10.247a.458.458 0 0 1-.456.456h-10.247a.458.458 0 0 1-.453-.456z" transform="translate(-1764.177 -1516.959)"/><path id="Path_148" data-name="Path 148" class="cls-1" d="M1817.5 1726.3v-10.247a.458.458 0 0 1 .456-.456h10.244a.458.458 0 0 1 .456.456v10.247a.458.458 0 0 1-.456.456h-10.247a.44.44 0 0 1-.453-.456z" transform="translate(-1764.177 -1595.177)"/><path id="Path_149" data-name="Path 149" class="cls-1" d="M1817.5 1817.9v-10.247a.458.458 0 0 1 .456-.456h10.244a.458.458 0 0 1 .456.456v10.247a.458.458 0 0 1-.456.456h-10.247a.458.458 0 0 1-.453-.456z" transform="translate(-1764.177 -1673.311)"/><path id="Path_150" data-name="Path 150" class="cls-1" d="M1817.5 1908.588v-10.233a.458.458 0 0 1 .456-.456h10.244a.458.458 0 0 1 .456.456v10.245a.458.458 0 0 1-.456.456h-10.247a.461.461 0 0 1-.453-.468z" transform="translate(-1764.177 -1750.676)"/><path id="Path_151" data-name="Path 151" class="cls-1" d="M1817.5 1995.7v-10.247a.458.458 0 0 1 .456-.456h10.244a.458.458 0 0 1 .456.456v10.247a.458.458 0 0 1-.456.456h-10.247a.458.458 0 0 1-.453-.456z" transform="translate(-1764.177 -1824.971)"/><path id="Path_152" data-name="Path 152" class="cls-1" d="M1817.5 2092v-15.32a1.28 1.28 0 0 1 1.279-1.279h8.6a1.28 1.28 0 0 1 1.279 1.279V2092a1.28 1.28 0 0 1-1.279 1.279h-8.6a1.27 1.27 0 0 1-1.279-1.279z" transform="translate(-1764.177 -1902.08)"/><path id="Path_153" data-name="Path 153" class="cls-1" d="M1729.6 916.2v-15.321a1.28 1.28 0 0 1 1.279-1.279h8.6a1.28 1.28 0 0 1 1.279 1.279V916.2a1.28 1.28 0 0 1-1.279 1.279h-8.6a1.28 1.28 0 0 1-1.279-1.279z" transform="translate(-1689.199 -899.144)"/></g><path id="Path_154" data-name="Path 154" class="cls-35" d="M2024.4 1115.136V937.8a1.1 1.1 0 0 1 1.1-1.1h2.573a1.1 1.1 0 0 1 1.1 1.1v177.319a1.1 1.1 0 0 1-1.1 1.1h-2.573a1.1 1.1 0 0 1-1.1-1.083z" transform="translate(-1726.776 -799.039)"/><path id="Path_155" data-name="Path 155" class="cls-33" d="M2056.9 808.982V594.145a4.855 4.855 0 0 1 2.984-4.5l87.505-33.755a1.24 1.24 0 0 1 1.764 1.161v288.568a1.441 1.441 0 0 1-2.043 1.338l-87.064-33.211a5.186 5.186 0 0 1-3.146-4.764z" transform="translate(-1754.498 -474.126)"/><path id="Path_156" data-name="Path 156" class="cls-35" d="M2684.418 846.5l-.118-291.9a31.322 31.322 0 0 1 2.911 2.558 26.566 26.566 0 0 1 2.323 3.529v279.025s-1.794 2.837-2.323 3.514-2.793 3.274-2.793 3.274z" transform="translate(-2289.659 -473.114)"/><path id="Path_157" data-name="Path 157" class="cls-36" d="M2121.5 875.969V662.7l77.625-27.9v268.911z" transform="translate(-1809.601 -541.524)"/><path id="Path_158" data-name="Path 158" class="cls-9" d="M2024.4 1115.136V937.788a1.085 1.085 0 0 1 1.088-1.088h.677v179.524h-.677a1.085 1.085 0 0 1-1.088-1.088z" transform="translate(-1726.776 -799.039)"/><path id="Path_159" data-name="Path 159" class="cls-14" d="M.1 721.691V389.9l35.564 5.293 46.325 18.451A224.806 224.806 0 0 1 99.4 456.69c7.454 25.155 14.011 60.807 11.835 105.588 0 0 3.043 46.575-23.538 131.508z" transform="translate(-.085 -332.628)"/><path id="Path_160" data-name="Path 160" class="cls-37" d="M878 1884.289l2.911-.75s-.25-8.13 3.161-11.5c0 0 27.566-28.683 32.52-33.02 0 0 9.483-2.176 8.174 7.719 0 0 .426 1.794-1.647 4.352l-10.321 11.5 46.987-13.908a8.654 8.654 0 0 1 4.66-.118 6.8 6.8 0 0 1 5.175 5.219 5.869 5.869 0 0 1-.735 4.146c-1.088 2-2.985 2.661-5.16 3.308l-36.754 12.541 41.944-11.6c2.323-.676 6.631-1.529 8.645-.176a8.129 8.129 0 0 1 3.161 6.454s-.353 4.7-6 6.91l-40.136 12.511 33.182-8.365c2.676-.735 9.1-2.146 11.041.529a7.325 7.325 0 0 1 1.014 2.808s1.661 3.528-3.146 6.645a25.336 25.336 0 0 1-4.293 1.764l-36.064 11.835 24.728-6.41c2.573-.75 5.66-.75 7.292 1.382a5.26 5.26 0 0 1 1.088 2.529s1.308 5.381-5.381 7.542l-44.12 11.57-10.1 2.088a27.188 27.188 0 0 1-8.16.456 20.143 20.143 0 0 1-5.94-1.441s-3.9-1.514-4.249-2.529l-3.749 1.191z" transform="translate(-748.918 -1568.53)"/><path id="Path_161" data-name="Path 161" class="cls-38" d="M879.5 1894.489l2.911-.75s-.25-8.13 3.161-11.5c0 0 27.566-28.683 32.52-33.02 0 0 9.483-2.176 8.174 7.719 0 0 .426 1.794-1.647 4.352l-10.321 11.5 46.987-13.908a8.656 8.656 0 0 1 4.66-.118 6.8 6.8 0 0 1 5.175 5.219 5.868 5.868 0 0 1-.735 4.146c-1.088 2-2.984 2.661-5.16 3.308l-36.755 12.541 41.944-11.6c2.323-.676 6.631-1.529 8.645-.177a8.129 8.129 0 0 1 3.161 6.454s-.353 4.7-6 6.91l-40.136 12.511 33.182-8.365c2.676-.735 9.1-2.146 11.041.529a7.322 7.322 0 0 1 1.014 2.808s1.661 3.528-3.146 6.645a25.361 25.361 0 0 1-4.293 1.764l-36.064 11.835 24.729-6.41c2.573-.75 5.66-.75 7.292 1.382a5.259 5.259 0 0 1 1.088 2.529s1.308 5.381-5.381 7.542l-44.12 11.57-10.1 2.088a27.184 27.184 0 0 1-8.16.456 20.131 20.131 0 0 1-5.94-1.441s-3.9-1.514-4.249-2.529l-3.749 1.191z" transform="translate(-750.197 -1577.23)"/><path id="Rectangle_25" data-name="Rectangle 25" class="cls-1" transform="rotate(-16.98 1110.712 -261.487)" d="M0 0h5.16v46.943H0z"/><path id="Path_162" data-name="Path 162" class="cls-14" d="M139.476 2158.107l-6.381 1.6s-54.014 15.246-99.1 26.522c-14.643 3.661-27.125 6.542-33.991 7.836l.015-59.822c22.508-.985 94.783-16.216 94.783-16.216l29.962-7.63 3.234 10.35z" transform="translate(0 -1800.183)"/><circle id="Ellipse_13" data-name="Ellipse 13" class="cls-1" cx="1.999" cy="1.999" r="1.999" transform="rotate(-40 549.943 19.034)"/><circle id="Ellipse_14" data-name="Ellipse 14" class="cls-1" cx="1.999" cy="1.999" r="1.999" transform="rotate(-40 549.345 28.51)"/><circle id="Ellipse_15" data-name="Ellipse 15" class="cls-1" cx="1.999" cy="1.999" r="1.999" transform="rotate(-40 548.523 38.092)"/><path id="Path_163" data-name="Path 163" class="cls-39" d="M1415.506 1927.933l2.22 7.527a1.209 1.209 0 0 0 1.514.809l4.087-1.309s3.19-1.235 2.484-5.5a5.593 5.593 0 0 0-4.219-4.219 9.264 9.264 0 0 0-3.955.823l-1.323.382a1.189 1.189 0 0 0-.808 1.487z" transform="translate(-1207.358 -1642.239)"/><path id="Path_164" data-name="Path 164" class="cls-39" d="M1490.93 2018.923l2.132 7.2a1.141 1.141 0 0 0 1.441.765l3.926-1.25s3.043-1.176 2.381-5.263a5.329 5.329 0 0 0-4.043-4.028 9.071 9.071 0 0 0-3.778.779l-1.264.368a1.143 1.143 0 0 0-.795 1.429z" transform="translate(-1271.696 -1719.953)"/><path id="Path_165" data-name="Path 165" class="cls-39" d="M1500.028 2132.066l1.559 6.278a1 1 0 0 0 1.22.72l3.426-.926s2.676-.9 2.25-4.44a4.6 4.6 0 0 0-3.323-3.631 7.585 7.585 0 0 0-3.293.53l-1.1.264a1 1 0 0 0-.739 1.205z" transform="translate(-1279.472 -1816.939)"/><path id="Path_166" data-name="Path 166" class="cls-39" d="M1430.628 2254.109l1.514 6.145a.973.973 0 0 0 1.191.706l3.337-.9s2.617-.867 2.205-4.337a4.5 4.5 0 0 0-3.249-3.543 7.647 7.647 0 0 0-3.22.515l-1.073.264a.932.932 0 0 0-.705 1.15z" transform="translate(-1220.274 -1921.104)"/><path id="Path_167" data-name="Path 167" class="cls-39" d="M1121.481 1859.981l3.558 3.2a.812.812 0 0 0 1.147-.235l2.088-2.587a3.545 3.545 0 0 0-.118-4.22 3.085 3.085 0 0 0-3.793-.441 9.165 9.165 0 0 0-2.146 2.264l-.691.823a.883.883 0 0 0-.045 1.196z" transform="translate(-956.424 -1582.55)"/><path id="Path_168" data-name="Path 168" class="cls-37" d="M1030.3 712.091l2.749.72s-.235 7.7 3 10.894c0 0 26.11 27.169 30.8 31.271 0 0 8.983 2.058 7.748-7.307 0 0 .412-1.691-1.558-4.131l-9.777-10.894 44.5 13.173a8.375 8.375 0 0 0 4.425.118 6.446 6.446 0 0 0 4.9-4.94 5.541 5.541 0 0 0-.706-3.925c-1.029-1.9-2.823-2.514-4.9-3.146l-34.814-11.879 39.724 11c2.205.647 6.278 1.455 8.189.177a7.636 7.636 0 0 0 2.984-6.116s-.338-4.455-5.675-6.542l-38-11.85 31.432 7.924c2.529.691 8.615 2.044 10.468-.5a6.908 6.908 0 0 0 .97-2.661s1.573-3.352-2.984-6.292a24.694 24.694 0 0 0-4.073-1.676l-34.167-11.2 23.42 6.072c2.441.706 5.366.706 6.91-1.308a5 5 0 0 0 1.029-2.4s1.25-5.1-5.087-7.145l-41.782-10.953-9.571-1.97a25.3 25.3 0 0 0-7.733-.426 18.775 18.775 0 0 0-5.616 1.367s-3.69 1.426-4.028 2.4l-3.543-1.117z" transform="translate(-878.827 -576.709)"/><path id="Path_169" data-name="Path 169" class="cls-38" d="M1038.6 707.391l2.749.72s-.235 7.7 3 10.894c0 0 26.111 27.169 30.8 31.271 0 0 8.983 2.058 7.748-7.307 0 0 .412-1.691-1.558-4.131l-9.777-10.894 44.5 13.173a8.375 8.375 0 0 0 4.425.118 6.446 6.446 0 0 0 4.9-4.94 5.54 5.54 0 0 0-.706-3.925c-1.029-1.9-2.823-2.514-4.9-3.146l-34.814-11.879 39.724 11c2.205.647 6.278 1.456 8.189.176a7.636 7.636 0 0 0 2.984-6.116s-.338-4.455-5.675-6.542l-38-11.85 31.432 7.924c2.529.691 8.615 2.044 10.468-.5a6.9 6.9 0 0 0 .97-2.661s1.573-3.352-2.984-6.292A24.692 24.692 0 0 0 1128 700.8l-34.167-11.2 23.42 6.072c2.44.706 5.366.706 6.91-1.308a5 5 0 0 0 1.029-2.4s1.25-5.1-5.087-7.145l-41.783-10.953-9.571-1.97a25.294 25.294 0 0 0-7.733-.426 18.772 18.772 0 0 0-5.616 1.367s-3.69 1.426-4.028 2.4l-3.543-1.117z" transform="translate(-885.907 -572.7)"/><path id="Rectangle_26" data-name="Rectangle 26" class="cls-1" transform="rotate(15.616 -267.87 630.66)" d="M0 0h5.16v46.943H0z"/><path id="Path_170" data-name="Path 170" class="cls-14" d="M146.842 428.351l-10.526-2.676-35.99-9.13v-.088c-1.808-.412-3.646-.823-5.528-1.25-32.271-7.218-72.275-15.23-94.783-16.215L0 336.7c6.866 1.308 19.715 3.984 34.314 7.821 27.11 7.1 60.748 18.612 86.3 25.919l40.871 10.365z" transform="translate(0 -287.25)"/><circle id="Ellipse_16" data-name="Ellipse 16" class="cls-1" cx="1.999" cy="1.999" r="1.999" transform="rotate(-49.98 176.295 -101.518)"/><circle id="Ellipse_17" data-name="Ellipse 17" class="cls-1" cx="1.999" cy="1.999" r="1.999" transform="rotate(-49.98 171.205 -95.748)"/><circle id="Ellipse_18" data-name="Ellipse 18" class="cls-1" cx="1.999" cy="1.999" r="1.999" transform="rotate(-49.98 166.192 -89.787)"/><path id="Path_171" data-name="Path 171" class="cls-39" d="M1546.236 1073.693l2.1-7.13a1.137 1.137 0 0 1 1.426-.764l3.882 1.235s3.014 1.161 2.352 5.219a5.324 5.324 0 0 1-4 4 8.945 8.945 0 0 1-3.749-.779l-1.25-.368a1.145 1.145 0 0 1-.761-1.413z" transform="translate(-1318.872 -909.113)"/><path id="Path_172" data-name="Path 172" class="cls-39" d="M1617.727 990.223l2.014-6.822a1.074 1.074 0 0 1 1.367-.721l3.7 1.176s2.882 1.117 2.249 4.984a5.089 5.089 0 0 1-3.823 3.823 8.466 8.466 0 0 1-3.587-.735l-1.206-.353a1.094 1.094 0 0 1-.714-1.352z" transform="translate(-1379.852 -838.213)"/><path id="Path_173" data-name="Path 173" class="cls-39" d="M1626.322 891.547l1.47-5.954a.934.934 0 0 1 1.147-.676l3.235.867s2.529.838 2.132 4.2a4.386 4.386 0 0 1-3.146 3.44 7.268 7.268 0 0 1-3.117-.5l-1.044-.25a.923.923 0 0 1-.677-1.127z" transform="translate(-1387.197 -754.842)"/><path id="Path_174" data-name="Path 174" class="cls-39" d="M1560.65 777.2l1.441-5.822a.906.906 0 0 1 1.117-.662l3.161.853s2.47.823 2.088 4.117a4.28 4.28 0 0 1-3.073 3.367 7.035 7.035 0 0 1-3.043-.485l-1.014-.25a.933.933 0 0 1-.677-1.118z" transform="translate(-1331.184 -657.431)"/><path id="Path_175" data-name="Path 175" class="cls-39" d="M1267.82 1154.674l3.367-3.029a.765.765 0 0 1 1.088.22l1.985 2.455a3.319 3.319 0 0 1-.118 3.984 2.9 2.9 0 0 1-3.587.412 8.555 8.555 0 0 1-2.029-2.146l-.647-.779a.793.793 0 0 1-.059-1.117z" transform="translate(-1081.254 -982.258)"/><path id="Path_176" data-name="Path 176" class="cls-13" d="M146.927 671.2a99.275 99.275 0 0 0-10.527-2.676l-35.99-9.13v-.094c-1.808-.412-3.646-.823-5.528-1.25-32.27-7.217-72.274-15.229-94.782-16.214V621.4l108.058 26.7a219.535 219.535 0 0 0 24.126 5.057c13.482 2.044 23.111-9.424 23.111-9.424z" transform="translate(-.085 -530.094)"/><path id="Path_177" data-name="Path 177" class="cls-13" d="M131.549 2131.92a34.816 34.816 0 0 0-14.628-5.337c-8.6-1.044-18.818 1.279-18.818 1.279l-98 22.876v-16.392c22.508-.985 94.783-16.216 94.783-16.216l29.962-7.63z" transform="translate(-.085 -1800.269)"/><path id="Path_178" data-name="Path 178" class="cls-40" d="M3876 630.715l7.777-7.586a10.191 10.191 0 0 1 11.7-1.823c8.13 4.087 21.509 12.482 28.316 26.008a10.674 10.674 0 0 1-3.573 13.643l-7.63 5.146c-.012-.003-5.657-21.877-36.59-35.388z" transform="translate(-3306.157 -529.088)"/><path id="Path_179" data-name="Path 179" class="cls-15" d="M4707.137 1465.531a28.571 28.571 0 0 1-3.043 10.82 2.657 2.657 0 0 1-.146.294c-5.6 11.041-21.876 16.393-34.226 17.2l-5.116.456-1.309.118-85.2 7.586c21.509-25.934 1.1-48.546 1.1-48.546l23.935-5.6a85.5 85.5 0 0 0 21.656-8.321c15.436-8.483 48.3-22.023 70.8.5a79.075 79.075 0 0 1 1.559 1.617 38.973 38.973 0 0 1 8.5 13.408 25.925 25.925 0 0 1 1.49 10.468z" transform="translate(-3905.036 -1217.842)"/><path id="Path_180" data-name="Path 180" class="cls-40" d="M4505.3 1643.82l10.865-.132a10.2 10.2 0 0 0 9.556-6.983c2.867-8.63 6.381-24.023 1.632-38.4a10.694 10.694 0 0 0-12.173-7.13l-9.174 1.485c.014-.002 11.202 19.389-.706 51.16z" transform="translate(-3842.939 -1357.126)"/><path id="Path_181" data-name="Path 181" class="cls-40" d="M4389.6 426.67s-4.969-6.9-10.909-13.423c-4.131-4.543-12.32-12.129-12.32-12.129-.779-.853-.926-2-.323-2.529l.544-.5c.6-.544 1.617-.176 2.484.559a146.664 146.664 0 0 1 12.305 12.144A129.745 129.745 0 0 1 4392.3 424.2c.779 1.191.926 2 .324 2.529l-.544.5a1.855 1.855 0 0 1-2.48-.559z" transform="translate(-3723.84 -339.392)"/><path id="Path_182" data-name="Path 182" class="cls-40" d="M4436.8 385.17s-4.969-6.9-10.909-13.423c-4.131-4.543-12.32-12.129-12.32-12.129-.779-.853-.926-2-.324-2.529l.544-.5c.6-.544 1.617-.176 2.484.559a146.7 146.7 0 0 1 12.306 12.144A129.6 129.6 0 0 1 4439.5 382.7c.779 1.191.926 2 .324 2.529l-.544.5c-.587.544-1.703.294-2.48-.559z" transform="translate(-3764.101 -303.993)"/><path id="Path_183" data-name="Path 183" class="cls-40" d="M4485.7 345.77s-4.969-6.9-10.909-13.423c-4.131-4.543-12.32-12.129-12.32-12.129-.779-.853-.926-2-.323-2.529l.544-.5c.6-.544 1.617-.176 2.484.559a146.806 146.806 0 0 1 12.306 12.144A129.7 129.7 0 0 1 4488.4 343.3c.779 1.191.926 2 .324 2.529l-.544.5c-.586.544-1.703.294-2.48-.559z" transform="translate(-3805.812 -270.386)"/><path id="Path_184" data-name="Path 184" class="cls-40" d="M5059.657 1591.087s-.044-8.5-1.088-17.26c-.72-6.1-2.984-17.025-2.984-17.025-.132-1.147.412-2.161 1.206-2.249l.72-.088c.794-.088 1.412.794 1.706 1.911a143.413 143.413 0 0 1 2.97 17.039 129.539 129.539 0 0 1 1.1 17.26c-.058 1.426-.412 2.161-1.206 2.249l-.72.088c-.807.074-1.571-.778-1.704-1.925z" transform="translate(-4312.305 -1325.976)"/><path id="Path_185" data-name="Path 185" class="cls-40" d="M5122.157 1584.687s-.044-8.5-1.088-17.26c-.72-6.1-2.984-17.025-2.984-17.025-.133-1.147.412-2.161 1.206-2.249l.72-.088c.794-.088 1.412.794 1.706 1.911a143.341 143.341 0 0 1 2.97 17.039 129.538 129.538 0 0 1 1.1 17.26c-.059 1.426-.412 2.161-1.206 2.25l-.72.088c-.792.073-1.571-.779-1.704-1.926z" transform="translate(-4365.616 -1320.517)"/><path id="Path_186" data-name="Path 186" class="cls-40" d="M5184.857 1580.987s-.044-8.5-1.088-17.26c-.72-6.1-2.984-17.025-2.984-17.025-.132-1.147.412-2.161 1.206-2.249l.72-.088c.794-.088 1.412.794 1.705 1.911a143.353 143.353 0 0 1 2.97 17.04 129.538 129.538 0 0 1 1.1 17.26c-.059 1.426-.412 2.161-1.206 2.25l-.72.088c-.791.072-1.56-.795-1.703-1.927z" transform="translate(-4419.098 -1317.36)"/><path id="Path_187" data-name="Path 187" class="cls-41" d="M4396.617 173.941c-20.17-9.527-63.717 11.908-63.717 11.908l12.732-10.644c9.306-8.16 24.6-15.878 36.372-12.026a26.87 26.87 0 0 1 14.613 10.762z" transform="translate(-3695.885 -138.369)"/><path id="Path_188" data-name="Path 188" class="cls-41" d="M5157.6 1880.818l1.309-.118a12.748 12.748 0 0 1-1.309.118z" transform="translate(-4399.339 -1604.254)"/><path id="Path_189" data-name="Path 189" class="cls-41" d="M5209.032 1546.661a29.142 29.142 0 0 1-3.043 10.821 2.663 2.663 0 0 1-.147.294c-5.6 11.041-21.876 16.392-34.225 17.2l-5.117.456c27.918-3.2 32.124-51.618 32.55-52.632a38.97 38.97 0 0 1 8.5 13.408 25.815 25.815 0 0 1 1.482 10.453z" transform="translate(-4406.931 -1298.971)"/></g></svg>