<svg xmlns="http://www.w3.org/2000/svg" viewBox="463.764 657.5 81.822 60.067"><path data-name="Path 547" d="M535.953 684.539c-2.784-1.392-8-1.408-8.225-1.408a1.2 1.2 0 0 0 0 2.4c1.347 0 5.258.208 7.153 1.155a1.2 1.2 0 0 0 1.072-2.144z"/><path data-name="Path 548" d="M541.929 701.603l-4.95-1.414a.5.5 0 0 1-.363-.481v-1.652a9.008 9.008 0 0 0 1.146-.94 8.817 8.817 0 0 0 2.7-6.379v-2.28l.479-.957a7.646 7.646 0 0 0 .8-3.4v-6.178a1.2 1.2 0 0 0-1.2-1.2h-11.532a7.615 7.615 0 0 0-7.606 7.612v.071a6.357 6.357 0 0 0 .668 2.828l.614 1.228v1.958a9.352 9.352 0 0 0 3.845 7.561v1.732c0 .267 0 .378-.99.66l-2.415.69-6.987-2.541a1.2 1.2 0 0 0-.327-.918l-2.233-2.346v-3.938c.236-.194.469-.394.694-.606a14.067 14.067 0 0 0 4.432-10.228v-3.145a13.854 13.854 0 0 0 1.282-5.826v-12.815a1.2 1.2 0 0 0-1.2-1.2h-17.94a11.464 11.464 0 0 0-11.451 11.452v2.563a13.854 13.854 0 0 0 1.282 5.826v2.706a14.645 14.645 0 0 0 5.126 11.178v4.03l-2.233 2.346a1.2 1.2 0 0 0-.327.918l-7.379 2.681a6.285 6.285 0 0 0-1.482.776l-1.158-.579a9.154 9.154 0 0 0 4.591-3.716 1.2 1.2 0 0 0 0-1.072c-.864-1.728-.969-4.9-1.053-7.441-.028-.847-.054-1.648-.105-2.361-.409-5.749-4.779-10.084-10.166-10.084s-9.752 4.336-10.161 10.085c-.051.713-.077 1.513-.105 2.361-.084 2.545-.189 5.712-1.053 7.44a1.2 1.2 0 0 0 0 1.072c.052.1 1.142 2.211 4.6 3.713l-3.216 1.608a5.017 5.017 0 0 0-2.792 4.512v8.855a1.2 1.2 0 0 0 2.4 0v-8.855a2.632 2.632 0 0 1 1.463-2.367l4.005-2 1.393 1.324a5.041 5.041 0 0 0 6.948 0l1.391-1.326 1.306.653a6.312 6.312 0 0 0-.964 3.346v9.225a1.2 1.2 0 1 0 2.4 0v-9.225a3.94 3.94 0 0 1 2.585-3.691l7.775-2.827 3.237 4.855a2.471 2.471 0 0 0 1.819 1.092q.124.012.247.012a2.47 2.47 0 0 0 1.751-.727l1.975-1.975v12.485a1.2 1.2 0 1 0 2.4 0v-12.484l1.975 1.975a2.469 2.469 0 0 0 1.751.727q.123 0 .247-.012a2.471 2.471 0 0 0 1.819-1.092l3.237-4.855 7.775 2.827a3.94 3.94 0 0 1 2.585 3.691v9.225a1.2 1.2 0 0 0 2.4 0v-9.225a6.336 6.336 0 0 0-1.773-4.385l.3-.085a6.573 6.573 0 0 0 1.115-.4l3.06 3.06v11.037a1.2 1.2 0 0 0 2.4 0v-11.037l3.039-3.039a2.852 2.852 0 0 0 .51.2l4.95 1.414a2.657 2.657 0 0 1 1.919 2.544v9.915a1.2 1.2 0 0 0 2.4 0v-9.915a5.065 5.065 0 0 0-3.675-4.85zm-70.476-2.117a8.617 8.617 0 0 1-3.847-2.47 13.212 13.212 0 0 0 .683-2.87 8.938 8.938 0 0 0 3.163 3.9zm6.866 3.244a2.645 2.645 0 0 1-3.646 0l-1.109-1.059a2.48 2.48 0 0 0 .291-1.17v-1.278a8.913 8.913 0 0 0 5.292 0v1.277a2.48 2.48 0 0 0 .291 1.171zm-1.822-5.5a6.5 6.5 0 0 1-6.491-6.496 1.191 1.191 0 0 0-1.4-1.181c0-.1.007-.206.01-.308.027-.824.052-1.6.1-2.27a8.9 8.9 0 0 1 2.428-5.586 7.447 7.447 0 0 1 10.7 0 8.9 8.9 0 0 1 2.423 5.588c.047.668.073 1.446.1 2.27l.007.214a10.77 10.77 0 0 0-5.91-4.327 15.043 15.043 0 0 0-4.559-.722 1.2 1.2 0 0 0-.83.366l-2.167 2.244a1.2 1.2 0 1 0 1.726 1.664l1.8-1.866c1.55.076 6.535.656 8.474 4.925a6.475 6.475 0 0 1-6.411 5.483zm5.042 2.262v-1.43a8.866 8.866 0 0 0 3.164-3.907 13.2 13.2 0 0 0 .682 2.863 8.658 8.658 0 0 1-3.846 2.472zm11.535-19.446v-2.974a1.2 1.2 0 0 0-.119-.521 11.5 11.5 0 0 1-1.162-5.037v-2.563a9.064 9.064 0 0 1 9.054-9.054h16.742v11.617a11.5 11.5 0 0 1-1.162 5.037 1.2 1.2 0 0 0-.119.521v3.413a11.507 11.507 0 0 1-3.674 8.477 11.928 11.928 0 0 1-.92.779l-.021.015a11.525 11.525 0 0 1-7.777 2.32 11.872 11.872 0 0 1-10.842-12.03zm6.749 24.117a.075.075 0 0 1-.067.024.076.076 0 0 1-.061-.037l-3.731-5.592 1.2-1.26 5.655 3.865zm4.868-4.625l-6.491-4.437v-2.237a13.5 13.5 0 0 0 5.564 1.605q.474.031.943.031a13.883 13.883 0 0 0 6.478-1.588v2.189zm5 4.613a.076.076 0 0 1-.061.037.074.074 0 0 1-.067-.024l-3-3 5.655-3.865 1.2 1.26zm21.881-1.017l-2.72-2.72a3.289 3.289 0 0 0 .074-.712v-.506a8.4 8.4 0 0 0 2.373.419h.276a8.9 8.9 0 0 0 2.643-.4v.483a2.865 2.865 0 0 0 .087.7zm4.52-7.743a6.442 6.442 0 0 1-4.72 1.829 6.709 6.709 0 0 1-6.29-6.81v-2.236a1.2 1.2 0 0 0-.127-.536l-.74-1.481a3.948 3.948 0 0 1-.415-1.756v-.067a5.215 5.215 0 0 1 5.209-5.209h10.336v4.978a5.237 5.237 0 0 1-.55 2.33l-.605 1.21a1.2 1.2 0 0 0-.127.536v2.555a6.439 6.439 0 0 1-1.971 4.662z"/><path data-name="Path 549" d="M539.262 707.48a1.2 1.2 0 0 0-1.2 1.2v7.686a1.2 1.2 0 0 0 2.4 0v-7.689a1.2 1.2 0 0 0-1.2-1.197z"/><path data-name="Path 550" d="M470.089 709.064a1.2 1.2 0 0 0-1.2 1.2v6.1a1.2 1.2 0 1 0 2.4 0v-6.1a1.2 1.2 0 0 0-1.2-1.2z"/><path data-name="Path 551" d="M514.509 671.948c-4.533-4.533-14.018-3.667-17.885-3.084a2.461 2.461 0 0 0-2.1 2.451v2.761a1.2 1.2 0 1 0 2.4 0v-2.76a.079.079 0 0 1 .063-.081 37.866 37.866 0 0 1 7.787-.38c3.738.249 6.445 1.187 8.046 2.789a1.2 1.2 0 0 0 1.695-1.695z"/><path data-name="Path 552" d="M490.594 710.043a1.2 1.2 0 0 0-1.2 1.2v5.126a1.2 1.2 0 0 0 2.4 0v-5.126a1.2 1.2 0 0 0-1.2-1.2z"/><path data-name="Path 553" d="M518.783 710.043a1.2 1.2 0 0 0-1.2 1.2v5.126a1.2 1.2 0 0 0 2.4 0v-5.126a1.2 1.2 0 0 0-1.2-1.2z"/></svg>